<svg width="120" height="120" viewBox="0 0 120 120" fill="none" xmlns="http://www.w3.org/2000/svg">
<g opacity="0.4">
<path d="M115.715 27.9081C116.047 28.4837 116.371 29.0649 116.685 29.6516C116.114 29.2777 115.732 28.638 115.715 27.9081Z" fill="#5046B9"/>
<path d="M103.982 13.1141C104.98 14.0512 105.949 15.0197 106.886 16.0183C106.524 16.688 105.815 17.1429 105 17.1429C103.817 17.1429 102.857 16.1835 102.857 15C102.857 14.1851 103.312 13.4764 103.982 13.1141Z" fill="#5046B9"/>
<path d="M90.3484 3.3145C90.9351 3.62926 91.5163 3.95286 92.0919 4.28512C91.362 4.26808 90.7223 3.88607 90.3484 3.3145Z" fill="#5046B9"/>
<path d="M27.9081 4.28512C28.4837 3.95286 29.0649 3.62926 29.6516 3.3145C29.2777 3.88607 28.638 4.26808 27.9081 4.28512Z" fill="#5046B9"/>
<path d="M13.1141 16.0183C14.0512 15.0197 15.0197 14.0512 16.0183 13.1141C16.688 13.4764 17.1429 14.1851 17.1429 15C17.1429 16.1835 16.1835 17.1429 15 17.1429C14.1851 17.1429 13.4764 16.688 13.1141 16.0183Z" fill="#5046B9"/>
<path d="M3.3145 29.6516C3.62926 29.0649 3.95286 28.4837 4.28512 27.9081C4.26808 28.638 3.88607 29.2777 3.3145 29.6516Z" fill="#5046B9"/>
<path d="M116.685 90.3484C116.371 90.9351 116.047 91.5163 115.715 92.0919C115.732 91.362 116.114 90.7223 116.685 90.3484Z" fill="#5046B9"/>
<path d="M106.886 103.982C106.524 103.312 105.815 102.857 105 102.857C103.817 102.857 102.857 103.817 102.857 105C102.857 105.815 103.312 106.524 103.982 106.886C104.98 105.949 105.949 104.98 106.886 103.982Z" fill="#5046B9"/>
<path d="M92.0919 115.715C91.362 115.732 90.7223 116.114 90.3484 116.685C90.9351 116.371 91.5163 116.047 92.0919 115.715Z" fill="#5046B9"/>
<path d="M29.6516 116.685C29.2777 116.114 28.638 115.732 27.9081 115.715C28.4837 116.047 29.0649 116.371 29.6516 116.685Z" fill="#5046B9"/>
<path d="M16.0183 106.886C16.688 106.524 17.1429 105.815 17.1429 105C17.1429 103.817 16.1835 102.857 15 102.857C14.1851 102.857 13.4764 103.312 13.1141 103.982C14.0512 104.98 15.0197 105.949 16.0183 106.886Z" fill="#5046B9"/>
<path d="M4.28512 92.0919C4.26808 91.362 3.88607 90.7223 3.3145 90.3484C3.62926 90.9351 3.95286 91.5163 4.28512 92.0919Z" fill="#5046B9"/>
<path d="M42.8571 2.14286C42.8571 3.32632 41.8978 4.28571 40.7143 4.28571C39.5308 4.28571 38.5714 3.32632 38.5714 2.14286C38.5714 0.95939 39.5308 0 40.7143 0C41.8978 0 42.8571 0.95939 42.8571 2.14286Z" fill="#5046B9"/>
<path d="M55.7143 2.14286C55.7143 3.32632 54.7549 4.28571 53.5714 4.28571C52.388 4.28571 51.4286 3.32632 51.4286 2.14286C51.4286 0.95939 52.388 0 53.5714 0C54.7549 0 55.7143 0.95939 55.7143 2.14286Z" fill="#5046B9"/>
<path d="M68.5714 2.14286C68.5714 3.32632 67.612 4.28571 66.4286 4.28571C65.2451 4.28571 64.2857 3.32632 64.2857 2.14286C64.2857 0.95939 65.2451 0 66.4286 0C67.612 0 68.5714 0.95939 68.5714 2.14286Z" fill="#5046B9"/>
<path d="M81.4286 2.14286C81.4286 3.32632 80.4692 4.28571 79.2857 4.28571C78.1022 4.28571 77.1429 3.32632 77.1429 2.14286C77.1429 0.95939 78.1022 0 79.2857 0C80.4692 0 81.4286 0.95939 81.4286 2.14286Z" fill="#5046B9"/>
<path d="M30 15C30 16.1835 29.0406 17.1429 27.8571 17.1429C26.6737 17.1429 25.7143 16.1835 25.7143 15C25.7143 13.8165 26.6737 12.8571 27.8571 12.8571C29.0406 12.8571 30 13.8165 30 15Z" fill="#5046B9"/>
<path d="M42.8571 15C42.8571 16.1835 41.8978 17.1429 40.7143 17.1429C39.5308 17.1429 38.5714 16.1835 38.5714 15C38.5714 13.8165 39.5308 12.8571 40.7143 12.8571C41.8978 12.8571 42.8571 13.8165 42.8571 15Z" fill="#5046B9"/>
<path d="M55.7143 15C55.7143 16.1835 54.7549 17.1429 53.5714 17.1429C52.388 17.1429 51.4286 16.1835 51.4286 15C51.4286 13.8165 52.388 12.8571 53.5714 12.8571C54.7549 12.8571 55.7143 13.8165 55.7143 15Z" fill="#5046B9"/>
<path d="M68.5714 15C68.5714 16.1835 67.612 17.1429 66.4286 17.1429C65.2451 17.1429 64.2857 16.1835 64.2857 15C64.2857 13.8165 65.2451 12.8571 66.4286 12.8571C67.612 12.8571 68.5714 13.8165 68.5714 15Z" fill="#5046B9"/>
<path d="M81.4286 15C81.4286 16.1835 80.4692 17.1429 79.2857 17.1429C78.1022 17.1429 77.1429 16.1835 77.1429 15C77.1429 13.8165 78.1022 12.8571 79.2857 12.8571C80.4692 12.8571 81.4286 13.8165 81.4286 15Z" fill="#5046B9"/>
<path d="M94.2857 15C94.2857 16.1835 93.3263 17.1429 92.1429 17.1429C90.9594 17.1429 90 16.1835 90 15C90 13.8165 90.9594 12.8571 92.1429 12.8571C93.3263 12.8571 94.2857 13.8165 94.2857 15Z" fill="#5046B9"/>
<path d="M17.1429 27.8571C17.1429 29.0406 16.1835 30 15 30C13.8165 30 12.8571 29.0406 12.8571 27.8571C12.8571 26.6737 13.8165 25.7143 15 25.7143C16.1835 25.7143 17.1429 26.6737 17.1429 27.8571Z" fill="#5046B9"/>
<path d="M30 27.8571C30 29.0406 29.0406 30 27.8571 30C26.6737 30 25.7143 29.0406 25.7143 27.8571C25.7143 26.6737 26.6737 25.7143 27.8571 25.7143C29.0406 25.7143 30 26.6737 30 27.8571Z" fill="#5046B9"/>
<path d="M42.8571 27.8571C42.8571 29.0406 41.8978 30 40.7143 30C39.5308 30 38.5714 29.0406 38.5714 27.8571C38.5714 26.6737 39.5308 25.7143 40.7143 25.7143C41.8978 25.7143 42.8571 26.6737 42.8571 27.8571Z" fill="#5046B9"/>
<path d="M55.7143 27.8571C55.7143 29.0406 54.7549 30 53.5714 30C52.388 30 51.4286 29.0406 51.4286 27.8571C51.4286 26.6737 52.388 25.7143 53.5714 25.7143C54.7549 25.7143 55.7143 26.6737 55.7143 27.8571Z" fill="#5046B9"/>
<path d="M68.5714 27.8571C68.5714 29.0406 67.612 30 66.4286 30C65.2451 30 64.2857 29.0406 64.2857 27.8571C64.2857 26.6737 65.2451 25.7143 66.4286 25.7143C67.612 25.7143 68.5714 26.6737 68.5714 27.8571Z" fill="#5046B9"/>
<path d="M81.4286 27.8571C81.4286 29.0406 80.4692 30 79.2857 30C78.1022 30 77.1429 29.0406 77.1429 27.8571C77.1429 26.6737 78.1022 25.7143 79.2857 25.7143C80.4692 25.7143 81.4286 26.6737 81.4286 27.8571Z" fill="#5046B9"/>
<path d="M94.2857 27.8571C94.2857 29.0406 93.3263 30 92.1429 30C90.9594 30 90 29.0406 90 27.8571C90 26.6737 90.9594 25.7143 92.1429 25.7143C93.3263 25.7143 94.2857 26.6737 94.2857 27.8571Z" fill="#5046B9"/>
<path d="M107.143 27.8571C107.143 29.0406 106.183 30 105 30C103.817 30 102.857 29.0406 102.857 27.8571C102.857 26.6737 103.817 25.7143 105 25.7143C106.183 25.7143 107.143 26.6737 107.143 27.8571Z" fill="#5046B9"/>
<path d="M4.28571 40.7143C4.28571 41.8978 3.32632 42.8571 2.14286 42.8571C0.95939 42.8571 0 41.8978 0 40.7143C0 39.5308 0.95939 38.5714 2.14286 38.5714C3.32632 38.5714 4.28571 39.5308 4.28571 40.7143Z" fill="#5046B9"/>
<path d="M17.1429 40.7143C17.1429 41.8978 16.1835 42.8571 15 42.8571C13.8165 42.8571 12.8571 41.8978 12.8571 40.7143C12.8571 39.5308 13.8165 38.5714 15 38.5714C16.1835 38.5714 17.1429 39.5308 17.1429 40.7143Z" fill="#5046B9"/>
<path d="M30 40.7143C30 41.8978 29.0406 42.8571 27.8571 42.8571C26.6737 42.8571 25.7143 41.8978 25.7143 40.7143C25.7143 39.5308 26.6737 38.5714 27.8571 38.5714C29.0406 38.5714 30 39.5308 30 40.7143Z" fill="#5046B9"/>
<path d="M42.8571 40.7143C42.8571 41.8978 41.8978 42.8571 40.7143 42.8571C39.5308 42.8571 38.5714 41.8978 38.5714 40.7143C38.5714 39.5308 39.5308 38.5714 40.7143 38.5714C41.8978 38.5714 42.8571 39.5308 42.8571 40.7143Z" fill="#5046B9"/>
<path d="M55.7143 40.7143C55.7143 41.8978 54.7549 42.8571 53.5714 42.8571C52.388 42.8571 51.4286 41.8978 51.4286 40.7143C51.4286 39.5308 52.388 38.5714 53.5714 38.5714C54.7549 38.5714 55.7143 39.5308 55.7143 40.7143Z" fill="#5046B9"/>
<path d="M68.5714 40.7143C68.5714 41.8978 67.612 42.8571 66.4286 42.8571C65.2451 42.8571 64.2857 41.8978 64.2857 40.7143C64.2857 39.5308 65.2451 38.5714 66.4286 38.5714C67.612 38.5714 68.5714 39.5308 68.5714 40.7143Z" fill="#5046B9"/>
<path d="M81.4286 40.7143C81.4286 41.8978 80.4692 42.8571 79.2857 42.8571C78.1022 42.8571 77.1429 41.8978 77.1429 40.7143C77.1429 39.5308 78.1022 38.5714 79.2857 38.5714C80.4692 38.5714 81.4286 39.5308 81.4286 40.7143Z" fill="#5046B9"/>
<path d="M94.2857 40.7143C94.2857 41.8978 93.3263 42.8571 92.1429 42.8571C90.9594 42.8571 90 41.8978 90 40.7143C90 39.5308 90.9594 38.5714 92.1429 38.5714C93.3263 38.5714 94.2857 39.5308 94.2857 40.7143Z" fill="#5046B9"/>
<path d="M107.143 40.7143C107.143 41.8978 106.183 42.8571 105 42.8571C103.817 42.8571 102.857 41.8978 102.857 40.7143C102.857 39.5308 103.817 38.5714 105 38.5714C106.183 38.5714 107.143 39.5308 107.143 40.7143Z" fill="#5046B9"/>
<path d="M120 40.7143C120 41.8978 119.041 42.8571 117.857 42.8571C116.674 42.8571 115.714 41.8978 115.714 40.7143C115.714 39.5308 116.674 38.5714 117.857 38.5714C119.041 38.5714 120 39.5308 120 40.7143Z" fill="#5046B9"/>
<path d="M4.28571 53.5714C4.28571 54.7549 3.32632 55.7143 2.14286 55.7143C0.95939 55.7143 0 54.7549 0 53.5714C0 52.388 0.95939 51.4286 2.14286 51.4286C3.32632 51.4286 4.28571 52.388 4.28571 53.5714Z" fill="#5046B9"/>
<path d="M17.1429 53.5714C17.1429 54.7549 16.1835 55.7143 15 55.7143C13.8165 55.7143 12.8571 54.7549 12.8571 53.5714C12.8571 52.388 13.8165 51.4286 15 51.4286C16.1835 51.4286 17.1429 52.388 17.1429 53.5714Z" fill="#5046B9"/>
<path d="M30 53.5714C30 54.7549 29.0406 55.7143 27.8571 55.7143C26.6737 55.7143 25.7143 54.7549 25.7143 53.5714C25.7143 52.388 26.6737 51.4286 27.8571 51.4286C29.0406 51.4286 30 52.388 30 53.5714Z" fill="#5046B9"/>
<path d="M42.8571 53.5714C42.8571 54.7549 41.8978 55.7143 40.7143 55.7143C39.5308 55.7143 38.5714 54.7549 38.5714 53.5714C38.5714 52.388 39.5308 51.4286 40.7143 51.4286C41.8978 51.4286 42.8571 52.388 42.8571 53.5714Z" fill="#5046B9"/>
<path d="M55.7143 53.5714C55.7143 54.7549 54.7549 55.7143 53.5714 55.7143C52.388 55.7143 51.4286 54.7549 51.4286 53.5714C51.4286 52.388 52.388 51.4286 53.5714 51.4286C54.7549 51.4286 55.7143 52.388 55.7143 53.5714Z" fill="#5046B9"/>
<path d="M68.5714 53.5714C68.5714 54.7549 67.612 55.7143 66.4286 55.7143C65.2451 55.7143 64.2857 54.7549 64.2857 53.5714C64.2857 52.388 65.2451 51.4286 66.4286 51.4286C67.612 51.4286 68.5714 52.388 68.5714 53.5714Z" fill="#5046B9"/>
<path d="M81.4286 53.5714C81.4286 54.7549 80.4692 55.7143 79.2857 55.7143C78.1022 55.7143 77.1429 54.7549 77.1429 53.5714C77.1429 52.388 78.1022 51.4286 79.2857 51.4286C80.4692 51.4286 81.4286 52.388 81.4286 53.5714Z" fill="#5046B9"/>
<path d="M94.2857 53.5714C94.2857 54.7549 93.3263 55.7143 92.1429 55.7143C90.9594 55.7143 90 54.7549 90 53.5714C90 52.388 90.9594 51.4286 92.1429 51.4286C93.3263 51.4286 94.2857 52.388 94.2857 53.5714Z" fill="#5046B9"/>
<path d="M107.143 53.5714C107.143 54.7549 106.183 55.7143 105 55.7143C103.817 55.7143 102.857 54.7549 102.857 53.5714C102.857 52.388 103.817 51.4286 105 51.4286C106.183 51.4286 107.143 52.388 107.143 53.5714Z" fill="#5046B9"/>
<path d="M120 53.5714C120 54.7549 119.041 55.7143 117.857 55.7143C116.674 55.7143 115.714 54.7549 115.714 53.5714C115.714 52.388 116.674 51.4286 117.857 51.4286C119.041 51.4286 120 52.388 120 53.5714Z" fill="#5046B9"/>
<path d="M4.28571 66.4286C4.28571 67.612 3.32632 68.5714 2.14286 68.5714C0.95939 68.5714 0 67.612 0 66.4286C0 65.2451 0.95939 64.2857 2.14286 64.2857C3.32632 64.2857 4.28571 65.2451 4.28571 66.4286Z" fill="#5046B9"/>
<path d="M17.1429 66.4286C17.1429 67.612 16.1835 68.5714 15 68.5714C13.8165 68.5714 12.8571 67.612 12.8571 66.4286C12.8571 65.2451 13.8165 64.2857 15 64.2857C16.1835 64.2857 17.1429 65.2451 17.1429 66.4286Z" fill="#5046B9"/>
<path d="M30 66.4286C30 67.612 29.0406 68.5714 27.8571 68.5714C26.6737 68.5714 25.7143 67.612 25.7143 66.4286C25.7143 65.2451 26.6737 64.2857 27.8571 64.2857C29.0406 64.2857 30 65.2451 30 66.4286Z" fill="#5046B9"/>
<path d="M42.8571 66.4286C42.8571 67.612 41.8978 68.5714 40.7143 68.5714C39.5308 68.5714 38.5714 67.612 38.5714 66.4286C38.5714 65.2451 39.5308 64.2857 40.7143 64.2857C41.8978 64.2857 42.8571 65.2451 42.8571 66.4286Z" fill="#5046B9"/>
<path d="M55.7143 66.4286C55.7143 67.612 54.7549 68.5714 53.5714 68.5714C52.388 68.5714 51.4286 67.612 51.4286 66.4286C51.4286 65.2451 52.388 64.2857 53.5714 64.2857C54.7549 64.2857 55.7143 65.2451 55.7143 66.4286Z" fill="#5046B9"/>
<path d="M68.5714 66.4286C68.5714 67.612 67.612 68.5714 66.4286 68.5714C65.2451 68.5714 64.2857 67.612 64.2857 66.4286C64.2857 65.2451 65.2451 64.2857 66.4286 64.2857C67.612 64.2857 68.5714 65.2451 68.5714 66.4286Z" fill="#5046B9"/>
<path d="M81.4286 66.4286C81.4286 67.612 80.4692 68.5714 79.2857 68.5714C78.1022 68.5714 77.1429 67.612 77.1429 66.4286C77.1429 65.2451 78.1022 64.2857 79.2857 64.2857C80.4692 64.2857 81.4286 65.2451 81.4286 66.4286Z" fill="#5046B9"/>
<path d="M94.2857 66.4286C94.2857 67.612 93.3263 68.5714 92.1429 68.5714C90.9594 68.5714 90 67.612 90 66.4286C90 65.2451 90.9594 64.2857 92.1429 64.2857C93.3263 64.2857 94.2857 65.2451 94.2857 66.4286Z" fill="#5046B9"/>
<path d="M107.143 66.4286C107.143 67.612 106.183 68.5714 105 68.5714C103.817 68.5714 102.857 67.612 102.857 66.4286C102.857 65.2451 103.817 64.2857 105 64.2857C106.183 64.2857 107.143 65.2451 107.143 66.4286Z" fill="#5046B9"/>
<path d="M120 66.4286C120 67.612 119.041 68.5714 117.857 68.5714C116.674 68.5714 115.714 67.612 115.714 66.4286C115.714 65.2451 116.674 64.2857 117.857 64.2857C119.041 64.2857 120 65.2451 120 66.4286Z" fill="#5046B9"/>
<path d="M4.28571 79.2857C4.28571 80.4692 3.32632 81.4286 2.14286 81.4286C0.95939 81.4286 0 80.4692 0 79.2857C0 78.1022 0.95939 77.1429 2.14286 77.1429C3.32632 77.1429 4.28571 78.1022 4.28571 79.2857Z" fill="#5046B9"/>
<path d="M17.1429 79.2857C17.1429 80.4692 16.1835 81.4286 15 81.4286C13.8165 81.4286 12.8571 80.4692 12.8571 79.2857C12.8571 78.1022 13.8165 77.1429 15 77.1429C16.1835 77.1429 17.1429 78.1022 17.1429 79.2857Z" fill="#5046B9"/>
<path d="M30 79.2857C30 80.4692 29.0406 81.4286 27.8571 81.4286C26.6737 81.4286 25.7143 80.4692 25.7143 79.2857C25.7143 78.1022 26.6737 77.1429 27.8571 77.1429C29.0406 77.1429 30 78.1022 30 79.2857Z" fill="#5046B9"/>
<path d="M42.8571 79.2857C42.8571 80.4692 41.8978 81.4286 40.7143 81.4286C39.5308 81.4286 38.5714 80.4692 38.5714 79.2857C38.5714 78.1022 39.5308 77.1429 40.7143 77.1429C41.8978 77.1429 42.8571 78.1022 42.8571 79.2857Z" fill="#5046B9"/>
<path d="M55.7143 79.2857C55.7143 80.4692 54.7549 81.4286 53.5714 81.4286C52.388 81.4286 51.4286 80.4692 51.4286 79.2857C51.4286 78.1022 52.388 77.1429 53.5714 77.1429C54.7549 77.1429 55.7143 78.1022 55.7143 79.2857Z" fill="#5046B9"/>
<path d="M68.5714 79.2857C68.5714 80.4692 67.612 81.4286 66.4286 81.4286C65.2451 81.4286 64.2857 80.4692 64.2857 79.2857C64.2857 78.1022 65.2451 77.1429 66.4286 77.1429C67.612 77.1429 68.5714 78.1022 68.5714 79.2857Z" fill="#5046B9"/>
<path d="M81.4286 79.2857C81.4286 80.4692 80.4692 81.4286 79.2857 81.4286C78.1022 81.4286 77.1429 80.4692 77.1429 79.2857C77.1429 78.1022 78.1022 77.1429 79.2857 77.1429C80.4692 77.1429 81.4286 78.1022 81.4286 79.2857Z" fill="#5046B9"/>
<path d="M94.2857 79.2857C94.2857 80.4692 93.3263 81.4286 92.1429 81.4286C90.9594 81.4286 90 80.4692 90 79.2857C90 78.1022 90.9594 77.1429 92.1429 77.1429C93.3263 77.1429 94.2857 78.1022 94.2857 79.2857Z" fill="#5046B9"/>
<path d="M107.143 79.2857C107.143 80.4692 106.183 81.4286 105 81.4286C103.817 81.4286 102.857 80.4692 102.857 79.2857C102.857 78.1022 103.817 77.1429 105 77.1429C106.183 77.1429 107.143 78.1022 107.143 79.2857Z" fill="#5046B9"/>
<path d="M120 79.2857C120 80.4692 119.041 81.4286 117.857 81.4286C116.674 81.4286 115.714 80.4692 115.714 79.2857C115.714 78.1022 116.674 77.1429 117.857 77.1429C119.041 77.1429 120 78.1022 120 79.2857Z" fill="#5046B9"/>
<path d="M17.1429 92.1429C17.1429 93.3263 16.1835 94.2857 15 94.2857C13.8165 94.2857 12.8571 93.3263 12.8571 92.1429C12.8571 90.9594 13.8165 90 15 90C16.1835 90 17.1429 90.9594 17.1429 92.1429Z" fill="#5046B9"/>
<path d="M30 92.1429C30 93.3263 29.0406 94.2857 27.8571 94.2857C26.6737 94.2857 25.7143 93.3263 25.7143 92.1429C25.7143 90.9594 26.6737 90 27.8571 90C29.0406 90 30 90.9594 30 92.1429Z" fill="#5046B9"/>
<path d="M42.8571 92.1429C42.8571 93.3263 41.8978 94.2857 40.7143 94.2857C39.5308 94.2857 38.5714 93.3263 38.5714 92.1429C38.5714 90.9594 39.5308 90 40.7143 90C41.8978 90 42.8571 90.9594 42.8571 92.1429Z" fill="#5046B9"/>
<path d="M55.7143 92.1429C55.7143 93.3263 54.7549 94.2857 53.5714 94.2857C52.388 94.2857 51.4286 93.3263 51.4286 92.1429C51.4286 90.9594 52.388 90 53.5714 90C54.7549 90 55.7143 90.9594 55.7143 92.1429Z" fill="#5046B9"/>
<path d="M68.5714 92.1429C68.5714 93.3263 67.612 94.2857 66.4286 94.2857C65.2451 94.2857 64.2857 93.3263 64.2857 92.1429C64.2857 90.9594 65.2451 90 66.4286 90C67.612 90 68.5714 90.9594 68.5714 92.1429Z" fill="#5046B9"/>
<path d="M81.4286 92.1429C81.4286 93.3263 80.4692 94.2857 79.2857 94.2857C78.1022 94.2857 77.1429 93.3263 77.1429 92.1429C77.1429 90.9594 78.1022 90 79.2857 90C80.4692 90 81.4286 90.9594 81.4286 92.1429Z" fill="#5046B9"/>
<path d="M94.2857 92.1429C94.2857 93.3263 93.3263 94.2857 92.1429 94.2857C90.9594 94.2857 90 93.3263 90 92.1429C90 90.9594 90.9594 90 92.1429 90C93.3263 90 94.2857 90.9594 94.2857 92.1429Z" fill="#5046B9"/>
<path d="M107.143 92.1429C107.143 93.3263 106.183 94.2857 105 94.2857C103.817 94.2857 102.857 93.3263 102.857 92.1429C102.857 90.9594 103.817 90 105 90C106.183 90 107.143 90.9594 107.143 92.1429Z" fill="#5046B9"/>
<path d="M30 105C30 106.183 29.0406 107.143 27.8571 107.143C26.6737 107.143 25.7143 106.183 25.7143 105C25.7143 103.817 26.6737 102.857 27.8571 102.857C29.0406 102.857 30 103.817 30 105Z" fill="#5046B9"/>
<path d="M42.8571 105C42.8571 106.183 41.8978 107.143 40.7143 107.143C39.5308 107.143 38.5714 106.183 38.5714 105C38.5714 103.817 39.5308 102.857 40.7143 102.857C41.8978 102.857 42.8571 103.817 42.8571 105Z" fill="#5046B9"/>
<path d="M55.7143 105C55.7143 106.183 54.7549 107.143 53.5714 107.143C52.388 107.143 51.4286 106.183 51.4286 105C51.4286 103.817 52.388 102.857 53.5714 102.857C54.7549 102.857 55.7143 103.817 55.7143 105Z" fill="#5046B9"/>
<path d="M68.5714 105C68.5714 106.183 67.612 107.143 66.4286 107.143C65.2451 107.143 64.2857 106.183 64.2857 105C64.2857 103.817 65.2451 102.857 66.4286 102.857C67.612 102.857 68.5714 103.817 68.5714 105Z" fill="#5046B9"/>
<path d="M81.4286 105C81.4286 106.183 80.4692 107.143 79.2857 107.143C78.1022 107.143 77.1429 106.183 77.1429 105C77.1429 103.817 78.1022 102.857 79.2857 102.857C80.4692 102.857 81.4286 103.817 81.4286 105Z" fill="#5046B9"/>
<path d="M94.2857 105C94.2857 106.183 93.3263 107.143 92.1429 107.143C90.9594 107.143 90 106.183 90 105C90 103.817 90.9594 102.857 92.1429 102.857C93.3263 102.857 94.2857 103.817 94.2857 105Z" fill="#5046B9"/>
<path d="M42.8571 117.857C42.8571 119.041 41.8978 120 40.7143 120C39.5308 120 38.5714 119.041 38.5714 117.857C38.5714 116.674 39.5308 115.714 40.7143 115.714C41.8978 115.714 42.8571 116.674 42.8571 117.857Z" fill="#5046B9"/>
<path d="M55.7143 117.857C55.7143 119.041 54.7549 120 53.5714 120C52.388 120 51.4286 119.041 51.4286 117.857C51.4286 116.674 52.388 115.714 53.5714 115.714C54.7549 115.714 55.7143 116.674 55.7143 117.857Z" fill="#5046B9"/>
<path d="M68.5714 117.857C68.5714 119.041 67.612 120 66.4286 120C65.2451 120 64.2857 119.041 64.2857 117.857C64.2857 116.674 65.2451 115.714 66.4286 115.714C67.612 115.714 68.5714 116.674 68.5714 117.857Z" fill="#5046B9"/>
<path d="M81.4286 117.857C81.4286 119.041 80.4692 120 79.2857 120C78.1022 120 77.1429 119.041 77.1429 117.857C77.1429 116.674 78.1022 115.714 79.2857 115.714C80.4692 115.714 81.4286 116.674 81.4286 117.857Z" fill="#5046B9"/>
</g>
</svg>
