<svg width="78" height="96" viewBox="0 0 78 96" fill="none" xmlns="http://www.w3.org/2000/svg">
<path opacity="0.4" fill-rule="evenodd" clip-rule="evenodd" d="M78 48C78 48.6165 77.5011 49.1163 76.8857 49.1163L1.11429 49.1163C0.498856 49.1163 0 48.6165 0 48C0 47.3835 0.498856 46.8837 1.11429 46.8837L76.8857 46.8837C77.5011 46.8837 78 47.3835 78 48ZM66.8571 55.8139C66.8571 56.4304 66.3583 56.9302 65.7429 56.9302L1.11429 56.9302C0.498856 56.9302 0 56.4304 0 55.8139C0 55.1975 0.498856 54.6977 1.11429 54.6977L65.7429 54.6977C66.3583 54.6977 66.8571 55.1975 66.8571 55.8139ZM55.7143 63.6279C55.7143 64.2444 55.2154 64.7442 54.6 64.7442L1.11429 64.7442C0.498856 64.7442 0 64.2444 0 63.6279C0 63.0114 0.498856 62.5116 1.11429 62.5116L54.6 62.5116C55.2154 62.5116 55.7143 63.0114 55.7143 63.6279ZM44.5714 71.4419C44.5714 72.0583 44.0726 72.5581 43.4571 72.5581L1.11429 72.5581C0.498856 72.5581 0 72.0583 0 71.4419C0 70.8254 0.498856 70.3256 1.11429 70.3256L43.4571 70.3256C44.0726 70.3256 44.5714 70.8254 44.5714 71.4419ZM33.4286 79.2558C33.4286 79.8723 32.9297 80.3721 32.3143 80.3721L1.11429 80.3721C0.498856 80.3721 0 79.8723 0 79.2558C0 78.6394 0.498856 78.1395 1.11429 78.1395L32.3143 78.1395C32.9297 78.1395 33.4286 78.6394 33.4286 79.2558ZM22.2857 87.0698C22.2857 87.6862 21.7869 88.186 21.1714 88.186L1.11429 88.186C0.498856 88.186 0 87.6862 0 87.0698C0 86.4533 0.498856 85.9535 1.11429 85.9535L21.1714 85.9535C21.7869 85.9535 22.2857 86.4533 22.2857 87.0698ZM10.0286 96C10.644 96 11.1429 95.5002 11.1429 94.8837C11.1429 94.2673 10.644 93.7674 10.0286 93.7674H1.11429C0.498856 93.7674 0 94.2673 0 94.8837C0 95.5002 0.498856 96 1.11429 96H10.0286ZM10.0286 -7.62939e-06C10.644 -7.62939e-06 11.1429 0.499817 11.1429 1.11627C11.1429 1.73273 10.644 2.23255 10.0286 2.23255H1.11429C0.498856 2.23255 0 1.73273 0 1.11627C0 0.499817 0.498856 -7.62939e-06 1.11429 -7.62939e-06H10.0286ZM21.1714 7.81395C21.7869 7.81395 22.2857 8.31377 22.2857 8.93023C22.2857 9.54669 21.7869 10.0465 21.1714 10.0465L1.11429 10.0465C0.498856 10.0465 0 9.54669 0 8.93023C0 8.31377 0.498856 7.81395 1.11429 7.81395L21.1714 7.81395ZM32.3143 15.6279C32.9297 15.6279 33.4286 16.1277 33.4286 16.7442C33.4286 17.3606 32.9297 17.8605 32.3143 17.8605L1.11429 17.8605C0.498856 17.8605 0 17.3606 0 16.7442C0 16.1277 0.498856 15.6279 1.11429 15.6279L32.3143 15.6279ZM43.4571 23.4419C44.0726 23.4419 44.5714 23.9417 44.5714 24.5581C44.5714 25.1746 44.0726 25.6744 43.4571 25.6744L1.11429 25.6744C0.498856 25.6744 0 25.1746 0 24.5581C0 23.9417 0.498856 23.4419 1.11429 23.4419L43.4571 23.4419ZM54.6 31.2558C55.2154 31.2558 55.7143 31.7556 55.7143 32.3721C55.7143 32.9886 55.2154 33.4884 54.6 33.4884L1.11429 33.4884C0.498856 33.4884 0 32.9886 0 32.3721C0 31.7556 0.498856 31.2558 1.11429 31.2558L54.6 31.2558ZM65.7429 39.0698C66.3583 39.0698 66.8571 39.5696 66.8571 40.186C66.8571 40.8025 66.3583 41.3023 65.7429 41.3023L1.11429 41.3023C0.498856 41.3023 0 40.8025 0 40.186C0 39.5696 0.498856 39.0698 1.11429 39.0698L65.7429 39.0698Z" fill="white"/>
</svg>
