<svg width="102" height="125" viewBox="0 0 102 125" fill="none" xmlns="http://www.w3.org/2000/svg">
<path opacity="0.3" fill-rule="evenodd" clip-rule="evenodd" d="M-2.73196e-06 62.5C-2.69688e-06 63.3027 0.652394 63.9535 1.45714 63.9535L100.543 63.9535C101.348 63.9535 102 63.3027 102 62.5C102 61.6973 101.348 61.0465 100.543 61.0465L1.45714 61.0465C0.652394 61.0465 -2.76705e-06 61.6973 -2.73196e-06 62.5ZM14.5714 72.6744C14.5714 73.4771 15.2238 74.1279 16.0286 74.1279L100.543 74.1279C101.348 74.1279 102 73.4771 102 72.6744C102 71.8717 101.348 71.2209 100.543 71.2209L16.0286 71.2209C15.2238 71.2209 14.5714 71.8717 14.5714 72.6744ZM29.1429 82.8488C29.1429 83.6515 29.7952 84.3023 30.6 84.3023L100.543 84.3023C101.348 84.3023 102 83.6515 102 82.8488C102 82.0462 101.348 81.3953 100.543 81.3953L30.6 81.3954C29.7952 81.3954 29.1429 82.0462 29.1429 82.8488ZM43.7143 93.0233C43.7143 93.8259 44.3666 94.4767 45.1714 94.4767L100.543 94.4767C101.348 94.4767 102 93.8259 102 93.0233C102 92.2206 101.348 91.5698 100.543 91.5698L45.1714 91.5698C44.3666 91.5698 43.7143 92.2206 43.7143 93.0233ZM58.2857 103.198C58.2857 104 58.9381 104.651 59.7429 104.651L100.543 104.651C101.348 104.651 102 104 102 103.198C102 102.395 101.348 101.744 100.543 101.744L59.7429 101.744C58.9381 101.744 58.2857 102.395 58.2857 103.198ZM72.8571 113.372C72.8571 114.175 73.5095 114.826 74.3143 114.826L100.543 114.826C101.348 114.826 102 114.175 102 113.372C102 112.569 101.348 111.919 100.543 111.919L74.3143 111.919C73.5095 111.919 72.8571 112.569 72.8571 113.372ZM88.8857 125C88.0809 125 87.4286 124.349 87.4286 123.547C87.4286 122.744 88.0809 122.093 88.8857 122.093L100.543 122.093C101.348 122.093 102 122.744 102 123.547C102 124.349 101.348 125 100.543 125L88.8857 125ZM88.8857 1.13735e-05C88.0809 1.14086e-05 87.4286 0.650814 87.4286 1.4535C87.4286 2.25618 88.0809 2.90699 88.8857 2.90699L100.543 2.90699C101.348 2.90699 102 2.25618 102 1.45349C102 0.650813 101.348 1.08287e-05 100.543 1.08639e-05L88.8857 1.13735e-05ZM74.3143 10.1744C73.5095 10.1744 72.8571 10.8252 72.8571 11.6279C72.8571 12.4306 73.5095 13.0814 74.3143 13.0814L100.543 13.0814C101.348 13.0814 102 12.4306 102 11.6279C102 10.8252 101.348 10.1744 100.543 10.1744L74.3143 10.1744ZM59.7429 20.3488C58.9381 20.3488 58.2857 20.9996 58.2857 21.8023C58.2857 22.605 58.9381 23.2558 59.7429 23.2558L100.543 23.2558C101.348 23.2558 102 22.605 102 21.8023C102 20.9996 101.348 20.3488 100.543 20.3488L59.7429 20.3488ZM45.1714 30.5233C44.3666 30.5233 43.7143 31.1741 43.7143 31.9768C43.7143 32.7794 44.3666 33.4302 45.1714 33.4302L100.543 33.4302C101.348 33.4302 102 32.7794 102 31.9767C102 31.1741 101.348 30.5233 100.543 30.5233L45.1714 30.5233ZM30.6 40.6977C29.7952 40.6977 29.1429 41.3485 29.1429 42.1512C29.1429 42.9539 29.7952 43.6047 30.6 43.6047L100.543 43.6047C101.348 43.6047 102 42.9539 102 42.1512C102 41.3485 101.348 40.6977 100.543 40.6977L30.6 40.6977ZM16.0286 50.8721C15.2238 50.8721 14.5714 51.5229 14.5714 52.3256C14.5714 53.1283 15.2238 53.7791 16.0286 53.7791L100.543 53.7791C101.348 53.7791 102 53.1283 102 52.3256C102 51.5229 101.348 50.8721 100.543 50.8721L16.0286 50.8721Z" fill="#5046B9"/>
</svg>
