<svg width="102" height="125" viewBox="0 0 102 125" fill="none" xmlns="http://www.w3.org/2000/svg">
<path opacity="0.3" fill-rule="evenodd" clip-rule="evenodd" d="M102 62.5C102 63.3027 101.348 63.9535 100.543 63.9535L1.45714 63.9535C0.652346 63.9535 -4.93252e-06 63.3027 -4.89743e-06 62.5C-4.86235e-06 61.6973 0.652347 61.0465 1.45714 61.0465L100.543 61.0465C101.348 61.0465 102 61.6973 102 62.5ZM87.4286 72.6744C87.4286 73.4771 86.7762 74.1279 85.9714 74.1279L1.45714 74.1279C0.652346 74.1279 -5.37726e-06 73.4771 -5.34217e-06 72.6744C-5.30708e-06 71.8717 0.652346 71.2209 1.45714 71.2209L85.9714 71.2209C86.7762 71.2209 87.4286 71.8717 87.4286 72.6744ZM72.8571 82.8488C72.8571 83.6515 72.2048 84.3023 71.4 84.3023L1.45714 84.3023C0.652346 84.3023 -5.822e-06 83.6515 -5.78691e-06 82.8488C-5.75182e-06 82.0462 0.652346 81.3953 1.45714 81.3953L71.4 81.3954C72.2048 81.3954 72.8571 82.0462 72.8571 82.8488ZM58.2857 93.0233C58.2857 93.8259 57.6334 94.4767 56.8286 94.4767L1.45714 94.4767C0.652345 94.4767 -6.26673e-06 93.8259 -6.23165e-06 93.0233C-6.19656e-06 92.2206 0.652345 91.5698 1.45714 91.5698L56.8286 91.5698C57.6334 91.5698 58.2857 92.2206 58.2857 93.0233ZM43.7143 103.198C43.7143 104 43.0619 104.651 42.2571 104.651L1.45714 104.651C0.652345 104.651 -6.71147e-06 104 -6.67638e-06 103.198C-6.6413e-06 102.395 0.652345 101.744 1.45714 101.744L42.2571 101.744C43.0619 101.744 43.7143 102.395 43.7143 103.198ZM29.1429 113.372C29.1429 114.175 28.4905 114.826 27.6857 114.826L1.45714 114.826C0.652344 114.826 -7.15621e-06 114.175 -7.12112e-06 113.372C-7.08604e-06 112.569 0.652344 111.919 1.45714 111.919L27.6857 111.919C28.4905 111.919 29.1429 112.569 29.1429 113.372ZM13.1143 125C13.9191 125 14.5714 124.349 14.5714 123.547C14.5714 122.744 13.9191 122.093 13.1143 122.093L1.45714 122.093C0.652344 122.093 -7.53077e-06 122.744 -7.56586e-06 123.547C-7.60095e-06 124.349 0.652344 125 1.45714 125L13.1143 125ZM13.1143 1.13735e-05C13.9191 1.14086e-05 14.5714 0.650814 14.5714 1.4535C14.5714 2.25618 13.9191 2.90699 13.1143 2.90699L1.45714 2.90699C0.652349 2.90699 -2.26409e-06 2.25618 -2.22901e-06 1.45349C-2.19392e-06 0.650813 0.652349 1.08287e-05 1.45714 1.08639e-05L13.1143 1.13735e-05ZM27.6857 10.1744C28.4905 10.1744 29.1429 10.8252 29.1429 11.6279C29.1429 12.4306 28.4905 13.0814 27.6857 13.0814L1.45714 13.0814C0.652349 13.0814 -2.70883e-06 12.4306 -2.67374e-06 11.6279C-2.63866e-06 10.8252 0.652349 10.1744 1.45714 10.1744L27.6857 10.1744ZM42.2571 20.3488C43.0619 20.3488 43.7143 20.9996 43.7143 21.8023C43.7143 22.605 43.0619 23.2558 42.2571 23.2558L1.45714 23.2558C0.652348 23.2558 -3.15357e-06 22.605 -3.11848e-06 21.8023C-3.08339e-06 20.9996 0.652348 20.3488 1.45714 20.3488L42.2571 20.3488ZM56.8286 30.5233C57.6334 30.5233 58.2857 31.1741 58.2857 31.9768C58.2857 32.7794 57.6334 33.4302 56.8286 33.4302L1.45714 33.4302C0.652348 33.4302 -3.59831e-06 32.7794 -3.56322e-06 31.9767C-3.52813e-06 31.1741 0.652348 30.5233 1.45714 30.5233L56.8286 30.5233ZM71.4 40.6977C72.2048 40.6977 72.8571 41.3485 72.8571 42.1512C72.8571 42.9539 72.2048 43.6047 71.4 43.6047L1.45714 43.6047C0.652347 43.6047 -4.04304e-06 42.9539 -4.00796e-06 42.1512C-3.97287e-06 41.3485 0.652347 40.6977 1.45714 40.6977L71.4 40.6977ZM85.9714 50.8721C86.7762 50.8721 87.4286 51.5229 87.4286 52.3256C87.4286 53.1283 86.7762 53.7791 85.9714 53.7791L1.45714 53.7791C0.652347 53.7791 -4.48778e-06 53.1283 -4.4527e-06 52.3256C-4.41761e-06 51.5229 0.652347 50.8721 1.45714 50.8721L85.9714 50.8721Z" fill="#5046B9"/>
</svg>
