<svg width="15" height="15" viewBox="0 0 15 15" fill="none" xmlns="http://www.w3.org/2000/svg">
<path d="M4.85786 1.52426L5.53036 1.30926C6.16161 1.10801 6.83473 1.43363 7.10536 2.06988L7.64223 3.33738C7.87598 3.88926 7.74661 4.53863 7.32098 4.94238L6.13723 6.06613C6.20973 6.73863 6.43598 7.40051 6.81473 8.05176C7.1746 8.68189 7.65725 9.2334 8.23411 9.67363L9.65598 9.19863C10.1954 9.01926 10.7822 9.22613 11.1122 9.71176L11.8829 10.843C12.2672 11.408 12.1985 12.1868 11.7216 12.6655L11.2104 13.1786C10.7016 13.6893 9.97473 13.8749 9.30286 13.6649C7.71598 13.1699 6.25723 11.7005 4.92598 9.25676C3.59286 6.80926 3.12223 4.73176 3.51473 3.02676C3.67973 2.30926 4.19036 1.73738 4.85786 1.52426Z" fill="white"/>
</svg>
