<svg width="52" height="52" viewBox="0 0 52 52" fill="none" xmlns="http://www.w3.org/2000/svg">
<mask id="mask0_4_5481" style="mask-type:alpha" maskUnits="userSpaceOnUse" x="0" y="0" width="52" height="52">
<g clip-path="url(#clip0_4_5481)">
<path d="M50.9844 1.03906H1.01562C0.454694 1.03906 0 1.49386 0 2.05468V12.5013C0 13.0621 0.454694 13.5169 1.01562 13.5169H50.9844C51.5453 13.5169 52 13.0621 52 12.5013V2.05468C52 1.49386 51.5453 1.03906 50.9844 1.03906ZM49.9688 11.4856H2.03124V3.0703H49.9688V11.4856Z" fill="black"/>
<path d="M47.6749 9.18231L46.8454 8.35286C47.0718 7.90517 47.1923 7.40772 47.1923 6.89158C47.1923 6.02495 46.8548 5.21002 46.242 4.59719C44.977 3.33224 42.9186 3.33214 41.6534 4.59719C41.0406 5.21002 40.7031 6.02495 40.7031 6.89158C40.7031 7.75821 41.0407 8.57315 41.6534 9.18587C42.2664 9.7987 43.0812 10.1362 43.9478 10.1362C44.4641 10.1362 44.9614 10.0155 45.4091 9.78925L46.2386 10.6187C46.4369 10.817 46.6968 10.9162 46.9567 10.9162C47.2166 10.9162 47.4766 10.817 47.6749 10.6187C48.0715 10.2221 48.0715 9.57902 47.6749 9.18231ZM44.8058 7.74948C44.5767 7.9787 44.272 8.10494 43.9478 8.10494C43.6236 8.10494 43.3191 7.9787 43.0898 7.74948C42.8607 7.52025 42.7344 7.21567 42.7344 6.89158C42.7344 6.5675 42.8607 6.26271 43.0898 6.03359C43.3264 5.79705 43.6372 5.67883 43.9478 5.67883C44.2585 5.67883 44.5693 5.79705 44.8058 6.03359C45.035 6.26281 45.1613 6.5675 45.1613 6.89158C45.1613 7.21567 45.0351 7.52035 44.8058 7.74948Z" fill="black"/>
<path d="M36.3937 8.91863C36.3805 8.85353 36.3612 8.78954 36.3359 8.72871C36.3105 8.66767 36.279 8.60785 36.2424 8.55301C36.2059 8.49816 36.1632 8.44535 36.1165 8.39863C36.0698 8.35191 36.018 8.30926 35.9621 8.27269C35.9073 8.23613 35.8484 8.20465 35.7864 8.17926C35.7255 8.15387 35.6615 8.13457 35.5965 8.12137C35.4655 8.09496 35.3304 8.09496 35.1994 8.12137C35.1344 8.13457 35.0704 8.15387 35.0095 8.17926C34.9485 8.20465 34.8896 8.23613 34.8348 8.27269C34.7789 8.30926 34.7271 8.35191 34.6794 8.39863C34.6327 8.44535 34.591 8.49806 34.5534 8.55301C34.5169 8.60785 34.4854 8.66777 34.46 8.72871C34.4346 8.78965 34.4153 8.85353 34.4021 8.91863C34.3889 8.98454 34.3828 9.05066 34.3828 9.11769C34.3828 9.1836 34.3889 9.24972 34.4021 9.31574C34.4153 9.38074 34.4346 9.44472 34.46 9.50556C34.4854 9.5666 34.5169 9.6255 34.5534 9.68126C34.591 9.7361 34.6327 9.78892 34.6794 9.83563C34.7271 9.88235 34.7789 9.92511 34.8348 9.96157C34.8896 9.99813 34.9485 10.0296 35.0095 10.055C35.0714 10.0804 35.1354 10.0997 35.1994 10.1129C35.2654 10.1261 35.3324 10.1322 35.3984 10.1322C35.4644 10.1322 35.5315 10.126 35.5965 10.1129C35.6615 10.0998 35.7255 10.0804 35.7864 10.055C35.8473 10.0296 35.9073 9.99813 35.9621 9.96157C36.018 9.92511 36.0698 9.88235 36.1165 9.83563C36.3054 9.64581 36.4141 9.3848 36.4141 9.11769C36.4141 9.05066 36.4069 8.98454 36.3937 8.91863Z" fill="black"/>
<path d="M31.5474 8.10156H10.4394C9.87852 8.10156 9.42383 8.55636 9.42383 9.11718C9.42383 9.67801 9.87852 10.1328 10.4394 10.1328H31.5474C32.1083 10.1328 32.563 9.67801 32.563 9.11718C32.563 8.55636 32.1083 8.10156 31.5474 8.10156Z" fill="black"/>
<path d="M31.9731 14.9688H1.13476C0.573834 14.9688 0.119141 15.4235 0.119141 15.9844V36.0123C0.119141 36.5732 0.573834 37.0279 1.13476 37.0279H31.9731C32.534 37.0279 32.9887 36.5731 32.9887 36.0123V15.9844C32.9887 15.4235 32.534 14.9688 31.9731 14.9688ZM12.3701 34.9966H3.74938L9.55517 28.2746L13.7598 33.1435L12.3701 34.9966ZM14.9091 34.9966L16.8028 32.4717H21.7275C22.2884 32.4717 22.7431 32.0169 22.7431 31.456C22.7431 30.8952 22.2884 30.4404 21.7275 30.4404H18.3264L19.0389 29.4904H25.4159L29.5459 34.9966H14.9091ZM20.5623 27.4592L22.2274 25.2391L23.8925 27.4592H20.5623ZM30.9575 33.4933L23.0399 22.9369C22.848 22.6812 22.547 22.5307 22.2274 22.5307C21.9078 22.5307 21.6067 22.6812 21.4149 22.9369L15.0073 31.4802L10.3239 26.0568C10.131 25.8335 9.85042 25.705 9.55528 25.705C9.26014 25.705 8.97962 25.8335 8.78665 26.0568L2.15038 33.7403V17H30.9575V33.4933Z" fill="black"/>
<path d="M13.9792 18.1641C11.9993 18.1641 10.3887 19.7747 10.3887 21.7546C10.3887 23.7344 11.9994 25.3451 13.9792 25.3451C15.959 25.3451 17.5697 23.7344 17.5697 21.7546C17.5697 19.7747 15.959 18.1641 13.9792 18.1641ZM13.9792 23.314C13.1194 23.314 12.4199 22.6145 12.4199 21.7547C12.4199 20.8949 13.1195 20.1954 13.9792 20.1954C14.8389 20.1954 15.5385 20.8949 15.5385 21.7547C15.5385 22.6145 14.839 23.314 13.9792 23.314Z" fill="black"/>
<path d="M50.9841 14.9688H35.375C34.8141 14.9688 34.3594 15.4235 34.3594 15.9844V36.0123C34.3594 36.5731 34.8141 37.0279 35.375 37.0279H50.9841C51.545 37.0279 51.9997 36.5731 51.9997 36.0123V15.9844C51.9997 15.4235 51.545 14.9688 50.9841 14.9688ZM49.9685 34.9967H36.3906V17H49.9685V34.9967Z" fill="black"/>
<path d="M47.6044 18.6719H38.7559C38.1949 18.6719 37.7402 19.1267 37.7402 19.6875C37.7402 20.2483 38.1949 20.7031 38.7559 20.7031H47.6044C48.1653 20.7031 48.62 20.2483 48.62 19.6875C48.62 19.1267 48.1653 18.6719 47.6044 18.6719Z" fill="black"/>
<path d="M47.6044 22.75H38.7559C38.1949 22.75 37.7402 23.2048 37.7402 23.7656C37.7402 24.3264 38.1949 24.7812 38.7559 24.7812H47.6044C48.1653 24.7812 48.62 24.3264 48.62 23.7656C48.62 23.2048 48.1653 22.75 47.6044 22.75Z" fill="black"/>
<path d="M47.6044 26.8203H38.7559C38.1949 26.8203 37.7402 27.2751 37.7402 27.8359C37.7402 28.3968 38.1949 28.8516 38.7559 28.8516H47.6044C48.1653 28.8516 48.62 28.3968 48.62 27.8359C48.62 27.2751 48.1653 26.8203 47.6044 26.8203Z" fill="black"/>
<path d="M39.7522 31.7153C39.739 31.6502 39.7197 31.5862 39.6943 31.5254C39.6689 31.4643 39.6374 31.4054 39.6009 31.3496C39.5633 31.2948 39.5216 31.242 39.4739 31.1953C39.2383 30.9596 38.8879 30.8509 38.5578 30.918C38.4928 30.9312 38.4288 30.9505 38.3679 30.9759C38.307 31.0013 38.248 31.0328 38.1922 31.0693C38.1373 31.1059 38.0845 31.1486 38.0378 31.1953C37.9911 31.242 37.9484 31.2947 37.9119 31.3496C37.8753 31.4055 37.8438 31.4644 37.8184 31.5254C37.793 31.5863 37.7737 31.6502 37.7605 31.7153C37.7473 31.7812 37.7402 31.8473 37.7402 31.9132C37.7402 31.9802 37.7473 32.0464 37.7605 32.1123C37.7737 32.1774 37.793 32.2414 37.8184 32.3023C37.8438 32.3633 37.8753 32.4222 37.9119 32.478C37.9484 32.5328 37.9911 32.5857 38.0378 32.6324C38.0845 32.6791 38.1373 32.7218 38.1922 32.7583C38.248 32.7949 38.307 32.8264 38.3679 32.8518C38.4288 32.8771 38.4928 32.8964 38.5578 32.9096C38.6238 32.9228 38.6898 32.93 38.7569 32.93C39.024 32.93 39.285 32.8213 39.4739 32.6323C39.5206 32.5856 39.5633 32.5328 39.6009 32.4779C39.6374 32.422 39.6689 32.3631 39.6943 32.3022C39.7197 32.2413 39.739 32.1774 39.7522 32.1123C39.7654 32.0464 39.7715 31.9802 39.7715 31.9132C39.7715 31.8473 39.7654 31.7812 39.7522 31.7153Z" fill="black"/>
<path d="M47.6037 30.8984H42.6055C42.0445 30.8984 41.5898 31.3532 41.5898 31.9141C41.5898 32.4749 42.0445 32.9297 42.6055 32.9297H47.6037C48.1647 32.9297 48.6194 32.4749 48.6194 31.9141C48.6194 31.3532 48.1647 30.8984 47.6037 30.8984Z" fill="black"/>
<path d="M16.7438 38.4688H1.13476C0.573834 38.4688 0.119141 38.9235 0.119141 39.4844V49.9455C0.119141 50.5063 0.573834 50.9611 1.13476 50.9611H16.7438C17.3048 50.9611 17.7595 50.5063 17.7595 49.9455V39.4844C17.7595 38.9235 17.3048 38.4688 16.7438 38.4688ZM15.7282 48.9298H2.15038V40.5H15.7282V48.9298Z" fill="black"/>
<path d="M50.9847 38.4688H20.2852C19.7242 38.4688 19.2695 38.9235 19.2695 39.4844V49.9455C19.2695 50.5063 19.7242 50.9611 20.2852 50.9611H50.9847C51.5457 50.9611 52.0004 50.5063 52.0004 49.9455V39.4844C52.0004 38.9235 51.5457 38.4688 50.9847 38.4688ZM49.9691 48.9298H21.3008V40.5H49.9691V48.9298Z" fill="black"/>
<path d="M25.9269 44.5126C25.9137 44.4477 25.8944 44.3837 25.8691 44.3227C25.8437 44.2608 25.8122 44.202 25.7756 44.1471C25.7391 44.0912 25.6964 44.0394 25.6497 43.9926C25.603 43.9459 25.5512 43.9033 25.4953 43.8667C25.4405 43.8302 25.3816 43.7987 25.3196 43.7733C25.2587 43.7479 25.1947 43.7276 25.1297 43.7144C24.9987 43.689 24.8636 43.689 24.7326 43.7144C24.6686 43.7276 24.6046 43.7479 24.5427 43.7733C24.4817 43.7987 24.4228 43.8302 24.368 43.8667C24.3121 43.9033 24.2603 43.9459 24.2136 43.9926C24.1669 44.0394 24.1242 44.0912 24.0866 44.1471C24.0501 44.202 24.0186 44.2608 23.9932 44.3227C23.9678 44.3838 23.9485 44.4476 23.9353 44.5126C23.9221 44.5776 23.916 44.6447 23.916 44.7107C23.916 44.7766 23.9221 44.8437 23.9353 44.9087C23.9485 44.9736 23.9678 45.0376 23.9932 45.0996C24.0186 45.1605 24.0501 45.2194 24.0866 45.2742C24.1242 45.3301 24.1669 45.3819 24.2136 45.4286C24.4025 45.6175 24.6645 45.7263 24.9316 45.7263C24.9977 45.7263 25.0647 45.7201 25.1297 45.707C25.1947 45.6938 25.2587 45.6735 25.3196 45.6481C25.3816 45.6227 25.4405 45.5922 25.4953 45.5547C25.5512 45.5182 25.603 45.4755 25.6497 45.4287C25.6964 45.382 25.7391 45.3302 25.7756 45.2744C25.8122 45.2195 25.8437 45.1606 25.8691 45.0997C25.8944 45.0377 25.9137 44.9737 25.9269 44.9087C25.9401 44.8436 25.9473 44.7766 25.9473 44.7107C25.9473 44.6447 25.9401 44.5775 25.9269 44.5126Z" fill="black"/>
<path d="M45.8366 43.6953H28.7812C28.2203 43.6953 27.7656 44.1501 27.7656 44.7109C27.7656 45.2718 28.2203 45.7266 28.7812 45.7266H45.8366C46.3975 45.7266 46.8522 45.2718 46.8522 44.7109C46.8522 44.1501 46.3975 43.6953 45.8366 43.6953Z" fill="black"/>
</g>
</mask>
<g mask="url(#mask0_4_5481)">
<rect width="52" height="52" fill="#222222"/>
</g>
<defs>
<clipPath id="clip0_4_5481">
<rect width="52" height="52" fill="white"/>
</clipPath>
</defs>
</svg>
