<svg width="50" height="50" viewBox="0 0 50 50" fill="none" xmlns="http://www.w3.org/2000/svg">
<g clip-path="url(#clip0_4_5434)">
<path d="M43.8684 28.9675C43.6498 27.2165 42.8789 25.5806 41.6676 24.2975V4.16664C41.6649 1.86661 39.801 0.00272437 37.5009 0H12.5009C10.2009 0.00272437 8.33703 1.86661 8.3343 4.16664V24.2974C7.12352 25.5797 6.35269 27.2143 6.1335 28.9641L4.20679 44.405C4.02888 45.8211 4.46784 47.2455 5.41196 48.3158C6.35608 49.3863 7.71446 49.9996 9.14179 49.9999C11.1709 49.9617 12.986 48.7293 13.7701 46.8574L15.5843 42.1374C16.0843 40.8533 17.3188 40.0055 18.6967 39.9999H31.3051C32.6828 40.0054 33.9172 40.8528 34.4175 42.1366L36.2317 46.8574C37.0118 48.7325 38.8294 49.9667 40.86 49.9999C42.2873 49.9996 43.6457 49.3862 44.5898 48.3158C45.534 47.2454 45.9729 45.8211 45.795 44.405L43.8684 28.9675ZM40.0009 22.9325C38.6814 22.1055 37.1557 21.6668 35.5984 21.6666H14.4035C12.8462 21.6668 11.3205 22.1055 10.001 22.9325V8.33336H40.0009V22.9325ZM12.5009 1.66666H37.5009C38.8816 1.66666 40.0009 2.78596 40.0009 4.16664V6.66662H10.001V4.16664C10.001 2.78596 11.1203 1.66666 12.5009 1.66666ZM43.3342 47.2158C42.7078 47.9256 41.8069 48.3325 40.8601 48.3333C39.539 48.3076 38.3509 47.5235 37.8076 46.3191C37.7959 46.2808 37.7959 46.2808 35.9742 41.5391C35.2239 39.613 33.3721 38.3415 31.3051 38.3332H18.6967C16.6303 38.3427 14.7798 39.6143 14.0301 41.5399L12.2175 46.2557C11.6847 47.4885 10.4842 48.2992 9.14171 48.3332C8.19247 48.3327 7.28913 47.9246 6.66137 47.2126C6.03361 46.5007 5.74177 45.5533 5.86008 44.6115L7.78761 29.1741C8.20873 25.8396 11.0425 23.3378 14.4035 23.3333H35.5984C38.9594 23.3378 41.7931 25.8396 42.2143 29.1741L44.1418 44.6115C44.258 45.5553 43.964 46.5035 43.3342 47.2158Z" fill="#222222"/>
<path d="M35.0013 26.6641C34.541 26.6641 34.168 27.0371 34.168 27.4974V28.3307C34.168 28.791 34.541 29.164 35.0013 29.164C35.4615 29.164 35.8346 28.791 35.8346 28.3307V27.4974C35.8346 27.0371 35.4615 26.6641 35.0013 26.6641Z" fill="#222222"/>
<path d="M35.0013 32.5C34.541 32.5 34.168 32.8731 34.168 33.3333V34.1667C34.168 34.6269 34.541 35 35.0013 35C35.4615 35 35.8346 34.6269 35.8346 34.1667V33.3333C35.8346 32.8732 35.4615 32.5 35.0013 32.5Z" fill="#222222"/>
<path d="M32.5006 30H31.6673C31.2071 30 30.834 30.3731 30.834 30.8333C30.834 31.2936 31.2071 31.6667 31.6673 31.6667H32.5006C32.9609 31.6667 33.334 31.2936 33.334 30.8333C33.334 30.3731 32.9609 30 32.5006 30Z" fill="#222222"/>
<path d="M38.3346 30H37.5013C37.041 30 36.668 30.3731 36.668 30.8333C36.668 31.2936 37.041 31.6667 37.5013 31.6667H38.3346C38.7949 31.6667 39.168 31.2936 39.168 30.8333C39.168 30.3731 38.7949 30 38.3346 30Z" fill="#222222"/>
<path d="M18.3339 29.9974H15.834V27.4974C15.834 27.0371 15.4609 26.6641 15.0006 26.6641C14.5404 26.6641 14.1673 27.0371 14.1673 27.4974V29.9974H11.6673C11.2071 29.9974 10.834 30.3704 10.834 30.8307C10.834 31.291 11.2071 31.664 11.6673 31.664H14.1673V34.164C14.1673 34.6243 14.5404 34.9973 15.0006 34.9973C15.4609 34.9973 15.834 34.6243 15.834 34.164V31.664H18.3339C18.7942 31.664 19.1673 31.291 19.1673 30.8307C19.1673 30.3704 18.7942 29.9974 18.3339 29.9974Z" fill="#222222"/>
<path d="M12.5013 5.00259C12.9615 5.00259 13.3346 4.6295 13.3346 4.16927C13.3346 3.70903 12.9615 3.33594 12.5013 3.33594C12.0411 3.33594 11.668 3.70903 11.668 4.16927C11.668 4.6295 12.0411 5.00259 12.5013 5.00259Z" fill="#222222"/>
<path d="M15.8333 5.00259C16.2936 5.00259 16.6667 4.6295 16.6667 4.16927C16.6667 3.70903 16.2936 3.33594 15.8333 3.33594C15.3731 3.33594 15 3.70903 15 4.16927C15 4.6295 15.3731 5.00259 15.8333 5.00259Z" fill="#222222"/>
<path d="M19.1673 5.00259C19.6275 5.00259 20.0006 4.6295 20.0006 4.16927C20.0006 3.70903 19.6275 3.33594 19.1673 3.33594C18.7071 3.33594 18.334 3.70903 18.334 4.16927C18.334 4.6295 18.7071 5.00259 19.1673 5.00259Z" fill="#222222"/>
<path d="M12.5013 12.5026H13.3346C13.7949 12.5026 14.168 12.1295 14.168 11.6693C14.168 11.209 13.7949 10.8359 13.3346 10.8359H12.5013C12.041 10.8359 11.668 11.209 11.668 11.6693C11.668 12.1295 12.041 12.5026 12.5013 12.5026Z" fill="#222222"/>
<path d="M16.6673 12.5026H37.5006C37.9608 12.5026 38.3339 12.1295 38.3339 11.6693C38.3339 11.209 37.9608 10.8359 37.5006 10.8359H16.6673C16.2071 10.8359 15.834 11.209 15.834 11.6693C15.834 12.1295 16.2071 12.5026 16.6673 12.5026Z" fill="#222222"/>
<path d="M12.5013 15.8307H13.3346C13.7949 15.8307 14.168 15.4576 14.168 14.9974C14.168 14.5371 13.7949 14.1641 13.3346 14.1641H12.5013C12.041 14.1641 11.668 14.5371 11.668 14.9974C11.668 15.4576 12.041 15.8307 12.5013 15.8307Z" fill="#222222"/>
<path d="M37.5 14.1641H30.8333C30.3731 14.1641 30 14.5371 30 14.9974C30 15.4576 30.3731 15.8307 30.8333 15.8307H37.5C37.9602 15.8307 38.3333 15.4576 38.3333 14.9974C38.3333 14.5371 37.9602 14.1641 37.5 14.1641Z" fill="#222222"/>
<path d="M21.6673 14.1641C21.2071 14.1641 20.834 14.5371 20.834 14.9974C20.834 15.4576 21.2071 15.8307 21.6673 15.8307H27.5006C27.9609 15.8307 28.3339 15.4576 28.3339 14.9974C28.3339 14.5371 27.9609 14.1641 27.5006 14.1641H21.6673Z" fill="#222222"/>
<path d="M16.6673 15.8307H18.334C18.7942 15.8307 19.1673 15.4576 19.1673 14.9974C19.1673 14.5371 18.7942 14.1641 18.334 14.1641H16.6673C16.2071 14.1641 15.834 14.5371 15.834 14.9974C15.834 15.4576 16.2071 15.8307 16.6673 15.8307Z" fill="#222222"/>
<path d="M13.3346 17.5H12.5013C12.041 17.5 11.668 17.8731 11.668 18.3333C11.668 18.7936 12.041 19.1667 12.5013 19.1667H13.3346C13.7949 19.1667 14.168 18.7936 14.168 18.3333C14.168 17.8731 13.7949 17.5 13.3346 17.5Z" fill="#222222"/>
<path d="M37.5 17.5H35.8333C35.3731 17.5 35 17.8731 35 18.3333C35 18.7936 35.3731 19.1667 35.8333 19.1667H37.5C37.9602 19.1667 38.3333 18.7936 38.3333 18.3333C38.3333 17.8731 37.9602 17.5 37.5 17.5Z" fill="#222222"/>
<path d="M16.6673 19.1667H32.5006C32.9609 19.1667 33.334 18.7936 33.334 18.3333C33.334 17.8731 32.9609 17.5 32.5006 17.5H16.6673C16.2071 17.5 15.834 17.8731 15.834 18.3333C15.834 18.7936 16.2071 19.1667 16.6673 19.1667Z" fill="#222222"/>
</g>
<defs>
<clipPath id="clip0_4_5434">
<rect width="50" height="50" fill="white"/>
</clipPath>
</defs>
</svg>
