<svg width="50" height="50" viewBox="0 0 50 50" fill="none" xmlns="http://www.w3.org/2000/svg">
<path d="M20.2763 5.69715H24.0135C24.4195 5.69715 24.7488 5.36792 24.7488 4.96186C24.7488 4.55579 24.4195 4.22656 24.0135 4.22656H20.2763C19.8702 4.22656 19.541 4.55579 19.541 4.96186C19.541 5.36792 19.8703 5.69715 20.2763 5.69715Z" fill="#222222"/>
<path d="M16.9443 45.2831H23.6104C24.0165 45.2831 24.3457 44.9539 24.3457 44.5478C24.3457 44.1417 24.0165 43.8125 23.6104 43.8125H16.9443C16.5382 43.8125 16.209 44.1417 16.209 44.5478C16.209 44.9539 16.5382 45.2831 16.9443 45.2831Z" fill="#222222"/>
<path d="M7.46576 37.9645C7.87183 37.9645 8.20106 37.6353 8.20106 37.2293V8.45404H32.3527V12.2364C32.3527 12.6425 32.6819 12.9717 33.088 12.9717C33.494 12.9717 33.8233 12.6425 33.8233 12.2364C33.8236 11.3518 33.8221 14.9502 33.8266 4.39521C33.8266 2.78542 32.5101 1.46875 30.8946 1.46875H30.8928H9.65908H9.65746C8.12046 1.46875 6.73047 2.73298 6.73047 4.39736V37.2293C6.73047 37.6353 7.0597 37.9645 7.46576 37.9645ZM30.8928 2.93934C31.6696 2.93934 32.3527 3.57534 32.3527 4.39736V6.98346H8.20155V4.39521C8.20155 3.59327 8.85837 2.93934 9.65908 2.93934H30.8928Z" fill="#222222"/>
<path d="M24.8136 19.992C25.0997 20.2759 25.5657 20.2775 25.8534 19.987L28.9263 16.8853C29.2103 16.5988 29.2103 16.1371 28.9263 15.8506L25.8534 12.7489C25.5676 12.4603 25.1023 12.4588 24.8136 12.7439C24.525 13.0297 24.5228 13.4953 24.8086 13.7836L27.3689 16.3679L24.8086 18.9522C24.5228 19.2406 24.525 19.7062 24.8136 19.992Z" fill="#222222"/>
<path d="M15.7394 12.7447C15.4511 12.4582 14.9851 12.4604 14.6996 12.7497L11.6271 15.8514C11.3431 16.1379 11.3431 16.5996 11.6271 16.8861L14.6996 19.9878C14.9852 20.2762 15.4505 20.2788 15.7394 19.9928C16.028 19.707 16.0302 19.2414 15.7444 18.9531L13.1845 16.3688L15.7444 13.7845C16.0302 13.4962 16.028 13.0305 15.7394 12.7447Z" fill="#222222"/>
<path d="M21.4619 10.6679L17.146 21.5286C16.9959 21.9059 17.1804 22.3335 17.5578 22.4832C17.933 22.633 18.3618 22.4506 18.5124 22.0714L22.8283 11.2107C22.9784 10.8334 22.7939 10.4058 22.4165 10.2561C22.0377 10.1042 21.6116 10.2905 21.4619 10.6679Z" fill="#222222"/>
<path d="M33.0919 24.2891C30.9375 24.2891 29.1875 26.0391 29.1875 28.1935C29.1875 30.3682 30.9606 32.0979 33.0919 32.0979C35.2139 32.0979 36.989 30.3718 36.989 28.1935C36.989 26.0391 35.239 24.2891 33.0919 24.2891ZM33.8272 30.5097V27.7082C33.8272 27.3038 33.4963 26.9729 33.0919 26.9729C32.6801 26.9729 32.3566 27.3038 32.3566 27.7082V30.517C31.3713 30.2082 30.6581 29.2817 30.6581 28.1935C30.6581 26.8553 31.7463 25.7597 33.0919 25.7597C34.4302 25.7597 35.5184 26.8553 35.5184 28.1935C35.5184 29.2817 34.8052 30.2009 33.8272 30.5097Z" fill="#222222"/>
<path d="M42.6129 25.8764L40.804 25.6705C40.6643 25.244 40.4879 24.8249 40.2746 24.4205L41.3334 22.9205C41.5467 22.6337 41.5099 22.2293 41.2599 21.9793L39.1496 19.8764C38.8849 19.6116 38.4658 19.5823 38.1716 19.8175L36.7525 20.9573C36.3481 20.7513 35.929 20.5822 35.4952 20.4499L35.1937 18.6337C35.1349 18.2808 34.8261 18.0234 34.4658 18.0234H31.4879C31.1129 18.0234 30.7967 18.3028 30.7526 18.6779L30.554 20.494C30.1202 20.6337 29.7084 20.8102 29.3114 21.0161L27.804 19.9499C27.5099 19.744 27.1129 19.7734 26.8628 20.0308L24.7599 22.1337C24.4952 22.3985 24.4731 22.8176 24.7084 23.1117L25.8408 24.5381C25.6349 24.9425 25.4658 25.3617 25.3334 25.7955L23.5246 26.097C23.1717 26.1632 22.9069 26.4646 22.9069 26.8249V29.8029C22.9069 30.1778 23.1937 30.4867 23.5614 30.5308L25.3702 30.7367C25.5099 31.1705 25.6937 31.5896 25.8996 31.9867L24.8408 33.4793C24.6349 33.7734 24.6643 34.1705 24.9217 34.4279L27.0246 36.5308C27.2893 36.7955 27.7084 36.8176 28.0026 36.5823L29.429 35.4499C29.8334 35.6484 30.2452 35.8176 30.679 35.9499L30.9805 37.7661C31.0393 38.1264 31.3481 38.3837 31.7084 38.3837H32.3555V40.0087H7.46576C7.06136 40.0087 6.73047 40.3396 6.73047 40.744C6.73047 40.8579 6.73047 45.7892 6.73047 45.6043C6.73047 47.2146 8.04668 48.5308 9.65697 48.5308H30.8923C32.5099 48.5308 33.8261 47.2146 33.8261 45.6043C33.8261 45.2448 33.8261 38.028 33.8261 38.3837H34.6864C35.0614 38.3837 35.3775 38.1043 35.4217 37.7293L35.6276 35.9132C36.054 35.7735 36.4731 35.597 36.8702 35.3911L38.3702 36.4572C38.6643 36.6631 39.0614 36.6264 39.3187 36.3764L41.4143 34.2661C41.679 34.0014 41.701 33.5822 41.4658 33.2955L40.3334 31.869C40.5393 31.4573 40.7084 31.0382 40.8408 30.6117L42.6496 30.3029C43.0025 30.244 43.2672 29.9352 43.2672 29.5822V26.6043C43.2672 26.2293 42.9878 25.9131 42.6129 25.8764ZM32.3555 45.6043C32.3555 46.4058 31.7011 47.0602 30.8923 47.0602H9.65698C8.85548 47.0602 8.20106 46.4058 8.20106 45.6043C8.20106 45.4464 8.20106 41.4038 8.20106 41.4793H32.3555V45.6043H32.3555ZM41.7967 28.9573L40.1349 29.2367C39.8408 29.2881 39.6129 29.5014 39.5393 29.7955C39.3923 30.4131 39.1496 31.0087 38.8261 31.5749C38.6717 31.8322 38.6937 32.1631 38.8849 32.3984L39.907 33.6925L38.7158 34.8984L37.3335 33.9131C37.0982 33.744 36.7746 33.7367 36.5246 33.8911C35.9879 34.2219 35.3996 34.472 34.7746 34.6264C34.4732 34.6999 34.2526 34.9572 34.2158 35.2587L34.0319 36.9132C33.4125 36.9132 32.9459 36.9132 32.3261 36.9132L32.0467 35.244C32.0026 34.9572 31.7819 34.7219 31.4952 34.6558C30.8776 34.5014 30.282 34.2587 29.7305 33.9352C29.4658 33.7808 29.1349 33.8028 28.8996 33.994L27.5981 35.0234L26.3996 33.8249L27.3702 32.4646C27.5265 32.2431 27.5544 31.9163 27.3996 31.6411C27.0687 31.1043 26.8114 30.5087 26.6496 29.8764C26.5761 29.5822 26.3261 29.3617 26.0246 29.3323L24.3775 29.1411V27.4499L26.0393 27.1705C26.3334 27.119 26.5687 26.8984 26.6349 26.6117C26.782 25.9867 27.0246 25.3911 27.3555 24.8469C27.5099 24.5822 27.4952 24.2514 27.304 24.0087L26.2672 22.7073L27.4658 21.5087L28.8408 22.4867C29.0761 22.6558 29.3996 22.6705 29.6496 22.5161C30.1864 22.1852 30.782 21.9352 31.4143 21.7734C31.7084 21.6999 31.9217 21.4499 31.9584 21.1484L32.1422 19.494H33.8481L34.1275 21.1558C34.179 21.4499 34.3923 21.6852 34.679 21.7514C35.304 21.8985 35.8996 22.1411 36.4511 22.472C36.7158 22.6264 37.0467 22.6043 37.282 22.4131L38.5761 21.3764L39.7746 22.5823L38.804 23.9499C38.6497 24.1684 38.6181 24.4877 38.7746 24.7661C39.1128 25.3175 39.3628 25.9131 39.5172 26.5234C39.5908 26.8175 39.8408 27.0382 40.1496 27.0749L41.7966 27.2587V28.9573H41.7967Z" fill="#222222"/>
</svg>
