<svg width="52" height="52" viewBox="0 0 52 52" fill="none" xmlns="http://www.w3.org/2000/svg">
<g clip-path="url(#clip0_4_5581)">
<path d="M24.4764 37.5234C24.0558 37.5234 23.7148 37.8644 23.7148 38.285C23.7148 38.7056 24.0558 39.0466 24.4764 39.0466H27.5248C27.9454 39.0466 28.2864 38.7056 28.2864 38.285C28.2864 37.8644 27.9454 37.5234 27.5248 37.5234H24.4764Z" fill="#222222"/>
<path d="M49.985 8.51244H43.4098V1.58937C43.4098 0.712941 42.6968 0 41.8204 0H10.1807C9.30423 0 8.59129 0.712941 8.59129 1.58937V8.51244H2.01611C0.91629 8.51244 0.0214844 9.40724 0.0214844 10.5071V39.9971C0.0214844 41.0969 0.91629 41.9917 2.01611 41.9917H18.4019V44.5282C18.4019 44.5324 18.4019 44.5366 18.402 44.5409C18.4438 47.0594 17.2965 49.555 16.8215 50.477H14.4029C13.9823 50.477 13.6413 50.818 13.6413 51.2386C13.6413 51.6592 13.9823 52.0002 14.4029 52.0002H37.5982C38.0187 52.0002 38.3597 51.6592 38.3597 51.2386C38.3597 50.818 38.0187 50.477 37.5982 50.477H35.1788C34.7034 49.5569 33.5571 47.0685 33.599 44.5409C33.599 44.5366 33.5992 44.5324 33.5992 44.5282V41.9917H39.5228C39.9434 41.9917 40.2844 41.6507 40.2844 41.2301C40.2844 40.8095 39.9434 40.4686 39.5228 40.4686H2.01611C1.75616 40.4686 1.54464 40.257 1.54464 39.9971V36.1043H50.4564V39.9971C50.4564 40.257 50.2449 40.4686 49.9849 40.4686H43.0768C42.6562 40.4686 42.3152 40.8095 42.3152 41.2301C42.3152 41.6507 42.6562 41.9917 43.0768 41.9917H49.9849C51.0847 41.9917 51.9795 41.0969 51.9795 39.9971V10.507C51.9795 9.40714 51.0848 8.51244 49.985 8.51244ZM19.925 44.5219V41.9916H32.0761V44.5219C32.0384 46.8907 32.8812 49.1633 33.4836 50.4768H18.5175C19.1199 49.1633 19.9627 46.8907 19.925 44.5219ZM3.94677 14.032V34.581H1.54475V10.507C1.54475 10.247 1.75626 10.0355 2.01622 10.0355H8.59139V12.1387H5.78624C4.77192 12.1388 3.94677 12.988 3.94677 14.032ZM41.8867 34.581H10.1145V28.6577C10.1145 28.2371 9.77347 27.8961 9.35287 27.8961C8.93228 27.8961 8.59129 28.2371 8.59129 28.6577V34.581H5.46993V14.032C5.46993 13.828 5.61179 13.6619 5.78614 13.6619H8.59129V25.1036C8.59129 25.5242 8.93228 25.8652 9.35287 25.8652C9.77347 25.8652 10.1145 25.5242 10.1145 25.1036V1.58937C10.1145 1.55281 10.1441 1.52316 10.1807 1.52316H41.8204C41.8569 1.52316 41.8866 1.55281 41.8866 1.58937V34.581H41.8867ZM46.5311 34.581H43.4097V13.6619H46.2149C46.3892 13.6619 46.5311 13.828 46.5311 14.032V34.581ZM50.4564 34.581H48.0542V14.032C48.0542 12.9881 47.2291 12.1388 46.2149 12.1388H43.4097V10.0356H49.9849C50.2449 10.0356 50.4564 10.2471 50.4564 10.5071V34.581Z" fill="#222222"/>
<path d="M15.1646 19.7046C16.1307 20.3218 17.2166 20.6355 18.4011 20.6371C19.4024 20.6371 20.3468 20.4172 21.2079 19.9836C23.3377 18.9111 24.5106 17.1189 24.5106 14.9372V7.98209C24.5106 6.58332 23.3726 5.44531 21.9738 5.44531C20.5751 5.44531 19.437 6.58332 19.437 7.98209V14.9372C19.437 15.058 19.437 15.1949 18.926 15.4522C18.7751 15.5281 18.6084 15.5635 18.3989 15.5635C18.1962 15.5633 18.0412 15.5217 17.8961 15.429C17.4798 15.1631 17.4798 15.0808 17.4798 14.9446V7.98209C17.4798 6.58332 16.3418 5.44531 14.943 5.44531C13.5443 5.44531 12.4062 6.58332 12.4062 7.98209V14.9446C12.4062 16.9058 13.3601 18.5518 15.1646 19.7046ZM13.9294 7.98209C13.9294 7.42319 14.3841 6.96847 14.943 6.96847C15.5019 6.96847 15.9566 7.42319 15.9566 7.98209V14.9446C15.9566 15.6924 16.281 16.2046 17.076 16.7125C17.4633 16.9601 17.9077 17.0859 18.4011 17.0866C18.8489 17.0866 19.2446 16.997 19.6109 16.8126C20.8202 16.2035 20.96 15.4505 20.96 14.9372V7.98209C20.96 7.42319 21.4147 6.96847 21.9736 6.96847C22.5325 6.96847 22.9872 7.42319 22.9872 7.98209V14.9372C22.9872 16.5367 22.135 17.8112 20.5227 18.6232C19.8759 18.9489 19.1622 19.114 18.394 19.114C17.513 19.1127 16.7023 18.8796 15.9845 18.421C14.6015 17.5375 13.9293 16.4004 13.9293 14.9446V7.98209H13.9294Z" fill="#222222"/>
<path d="M39.0777 16.6314L36.0719 12.6709L38.5143 9.43185C38.9223 8.89082 39.0951 8.22327 39.001 7.55216C38.9068 6.88116 38.557 6.28693 38.0161 5.87902C37.475 5.47092 36.8071 5.29819 36.1362 5.39222C35.4652 5.48635 34.8711 5.83627 34.4632 6.3772L32.8844 8.47104L31.2905 6.3708C30.4448 5.25676 28.8503 5.03824 27.7362 5.88369C26.622 6.72935 26.4034 8.3238 27.2491 9.43804L29.7101 12.6808L26.8614 16.4589C26.4534 16.9999 26.2805 17.6674 26.3747 18.3385C26.4688 19.0096 26.8186 19.6038 27.3596 20.0116C27.8032 20.3462 28.3308 20.5231 28.8856 20.5231C29.6899 20.5231 30.4287 20.1551 30.9124 19.5135L32.8975 16.8809L35.0361 19.6989C35.52 20.3365 36.2571 20.7021 37.0581 20.7021C37.6156 20.7021 38.1455 20.5237 38.5904 20.186C39.1302 19.7763 39.4782 19.181 39.5702 18.5097C39.6623 17.8383 39.4875 17.1712 39.0777 16.6314ZM37.6698 18.9725C37.492 19.1075 37.2805 19.1789 37.0583 19.1789C36.7378 19.1789 36.443 19.0327 36.2495 18.7779L33.5024 15.158C33.3584 14.9682 33.1339 14.8568 32.8957 14.8568C32.8953 14.8568 32.8949 14.8568 32.8945 14.8568C32.6559 14.8572 32.4313 14.9693 32.2876 15.1598L29.6964 18.5963C29.5032 18.8527 29.2077 18.9997 28.8858 18.9997C28.6647 18.9997 28.4542 18.9291 28.2768 18.7952C28.0606 18.6322 27.9209 18.3948 27.8833 18.1268C27.8457 17.8586 27.9148 17.5918 28.0778 17.3757L31.2734 13.1378C31.4786 12.8657 31.478 12.4904 31.2719 12.2188L28.4625 8.51734C28.1247 8.07207 28.212 7.43488 28.6572 7.09704C29.1025 6.7591 29.7396 6.84653 30.0775 7.2917L32.2799 10.1938C32.4239 10.3836 32.6483 10.495 32.8865 10.495H32.8877C33.1263 10.4947 33.351 10.3825 33.4946 10.192L35.6797 7.29424C35.8426 7.07805 36.0801 6.93833 36.3481 6.90066C36.6163 6.86298 36.883 6.93214 37.0993 7.09532C37.3154 7.2583 37.4552 7.49571 37.4927 7.76378C37.5303 8.03196 37.4613 8.29872 37.2982 8.5148L34.509 12.2139C34.3037 12.4861 34.3044 12.8614 34.5104 13.1329L37.8645 17.5524C38.2023 17.9976 38.115 18.6347 37.6698 18.9725Z" fill="#222222"/>
<path d="M38.8325 23.0312H13.1678C12.7472 23.0312 12.4062 23.3722 12.4062 23.7928C12.4062 24.2134 12.7472 24.5544 13.1678 24.5544H38.8325C39.2531 24.5544 39.5941 24.2134 39.5941 23.7928C39.5941 23.3722 39.2532 23.0312 38.8325 23.0312Z" fill="#222222"/>
<path d="M38.8325 26.1172H13.1678C12.7472 26.1172 12.4062 26.4582 12.4062 26.8788C12.4062 27.2994 12.7472 27.6403 13.1678 27.6403H38.8325C39.2531 27.6403 39.5941 27.2994 39.5941 26.8788C39.5941 26.4582 39.2532 26.1172 38.8325 26.1172Z" fill="#222222"/>
<path d="M38.8325 29.2109H13.1678C12.7472 29.2109 12.4062 29.5519 12.4062 29.9725C12.4062 30.3931 12.7472 30.7341 13.1678 30.7341H38.8325C39.2531 30.7341 39.5941 30.3931 39.5941 29.9725C39.5941 29.5519 39.2532 29.2109 38.8325 29.2109Z" fill="#222222"/>
</g>
<defs>
<clipPath id="clip0_4_5581">
<rect width="52" height="52" fill="white"/>
</clipPath>
</defs>
</svg>
