<svg width="52" height="52" viewBox="0 0 52 52" fill="none" xmlns="http://www.w3.org/2000/svg">
<g clip-path="url(#clip0_4_5463)">
<path d="M47.582 11.7814H46.3822C46.3509 11.7261 46.3163 11.6724 46.2742 11.6228L45.6541 10.8925C43.2895 8.10787 41.9873 4.60021 41.9873 1.01577C41.9873 0.454946 41.5326 0.000149962 40.9717 0.000149962H38.7761C38.2152 0.000149962 37.7605 0.454946 37.7605 1.01577C37.7605 4.60031 36.4582 8.10787 34.0937 10.8925L33.4735 11.6228C33.2162 11.9259 33.1594 12.3513 33.3282 12.7114L35.7239 17.8214C34.736 18.2673 34.0464 19.2611 34.0464 20.4136V35.3438H29.3504V18.8381V15.9933H29.95C30.5109 15.9933 30.9656 15.5385 30.9656 14.9776C30.9656 14.6249 30.7857 14.3144 30.5128 14.1323C31.0641 13.0992 31.3607 11.9027 31.3607 10.6555C31.3607 8.93794 30.8006 7.31487 29.7836 6.08546L29.6774 5.95708C28.4592 4.48443 27.6871 3.13751 27.6023 0.975961C27.5856 0.550618 27.3055 0.180829 26.9006 0.0496108C26.4957 -0.0818108 26.0519 0.0535717 25.7889 0.38822L21.9565 5.26473C20.8469 6.67645 20.2338 8.37152 20.1834 10.1664C20.1445 11.552 20.4451 12.8964 21.0567 14.115C20.7681 14.2941 20.5751 14.6129 20.5751 14.9776C20.5751 15.5385 21.0298 15.9933 21.5907 15.9933H22.1903V18.8381V35.3439H17.9528V32.3986C17.9528 31.8378 17.4981 31.383 16.9371 31.383C16.3762 31.383 15.9215 31.8378 15.9215 32.3986V35.3439H11.8176V25.7922C11.8176 25.2314 11.3629 24.7766 10.802 24.7766C10.241 24.7766 9.78634 25.2314 9.78634 25.7922V35.3439H8.53134V9.91537H12.6816V21.5295C12.6816 22.0904 13.1363 22.5452 13.6972 22.5452C14.2581 22.5452 14.7128 22.0904 14.7128 21.5295V9.91537H15.9214V24.1382C15.9214 24.699 16.3761 25.1538 16.937 25.1538C17.498 25.1538 17.9527 24.699 17.9527 24.1382V8.89975C17.9527 8.70932 17.8993 8.53189 17.8081 8.37965C17.8084 8.37934 17.8086 8.37914 17.8089 8.37884L13.0982 0.49486C12.9149 0.18804 12.5838 0.000149962 12.2264 0.000149962C11.869 0.000149962 11.5379 0.18804 11.3546 0.49486L6.6438 8.37884C6.64411 8.37904 6.64431 8.37924 6.64462 8.37945C6.55341 8.53179 6.49999 8.70932 6.49999 8.89975V11.7814H4.41796C2.73792 11.7814 1.37109 13.1482 1.37109 14.8282V41.6407C1.37109 43.3207 2.73792 44.6876 4.41796 44.6876H18.8906V49.9688H17.1133C16.5523 49.9688 16.0976 50.4236 16.0976 50.9844C16.0976 51.5453 16.5523 52 17.1133 52H34.8867C35.4476 52 35.9023 51.5453 35.9023 50.9844C35.9023 50.4236 35.4476 49.9688 34.8867 49.9688H33.1093V44.6876H47.5819C49.262 44.6876 50.6288 43.3207 50.6288 41.6407V14.8282C50.6289 13.1482 49.2621 11.7814 47.582 11.7814ZM12.2263 2.99583L12.99 4.27409H11.4625L12.2263 2.99583ZM10.2489 6.30534H14.2037L15.147 7.88413H9.30555L10.2489 6.30534ZM39.8738 11.6764C40.2208 11.6764 40.503 11.9586 40.503 12.3056C40.503 12.6526 40.2208 12.9348 39.8738 12.9348C39.5267 12.9348 39.2445 12.6526 39.2445 12.3056C39.2445 11.9586 39.5267 11.6764 39.8738 11.6764ZM35.4442 12.4401L35.6419 12.2072C37.0709 10.5244 38.1562 8.60684 38.8581 6.56625V9.84702C37.8936 10.247 37.2132 11.1982 37.2132 12.3056C37.2132 13.7726 38.4067 14.9661 39.8738 14.9661C41.3408 14.9661 42.5343 13.7726 42.5343 12.3056C42.5343 11.1982 41.8539 10.247 40.8894 9.84702V6.56625C41.5914 8.60695 42.6767 10.5245 44.1056 12.2073L44.3033 12.4402L41.898 17.5705H37.8495L35.4442 12.4401ZM41.2441 26.5806C40.6832 26.5806 40.2285 27.0354 40.2285 27.5963V35.3438H36.0775V22.9194H43.4676V35.3438H42.2598V27.5963C42.2598 27.0354 41.8051 26.5806 41.2441 26.5806ZM36.0776 20.8883V20.4137C36.0775 19.966 36.4417 19.6018 36.8894 19.6018H37.204H42.5435H42.6557C43.1033 19.6018 43.4677 19.966 43.4677 20.4137V20.8883H36.0776ZM23.5532 6.51984L25.9519 3.46769C26.3819 4.92237 27.1437 6.08119 28.112 7.2518L28.2182 7.38017C29.7122 9.18615 29.7122 12.1248 28.2181 13.9308C28.2095 13.9413 28.2008 13.9516 28.1921 13.962H23.3194C23.3194 13.9619 23.3193 13.9618 23.3192 13.9618C21.7493 11.6836 21.8413 8.69815 23.5532 6.51984ZM24.2214 17.8225V15.9933H27.3189V17.8225H24.2214ZM27.3189 19.8538V35.3439H24.2214V19.8538H27.3189ZM3.40244 14.8282C3.40244 14.2682 3.85795 13.8126 4.41806 13.8126H6.50009V35.3438H3.40244V14.8282ZM31.0782 49.9688H20.9219V44.6876H31.0782V49.9688ZM48.5977 41.6407C48.5977 42.2007 48.1421 42.6563 47.582 42.6563H4.41806C3.85805 42.6563 3.40244 42.2007 3.40244 41.6407V41.0313H10.449C11.01 41.0313 11.4647 40.5765 11.4647 40.0157C11.4647 39.4549 11.01 39.0001 10.449 39.0001H3.40244V37.3751H48.5977V41.6407ZM48.5977 35.3438H45.4989V20.4136C45.4989 19.3262 44.8852 18.3801 43.986 17.9019L45.923 13.7706C46.0143 13.7976 46.1109 13.8126 46.211 13.8126H47.582C48.1421 13.8126 48.5977 14.2682 48.5977 14.8282V35.3438Z" fill="#222222"/>
<path d="M17.6555 26.9851C17.4666 26.7962 17.2046 26.6875 16.9375 26.6875C16.6704 26.6875 16.4094 26.7962 16.2195 26.9851C16.0305 27.174 15.9219 27.436 15.9219 27.7031C15.9219 27.9712 16.0305 28.2323 16.2195 28.4212C16.4084 28.61 16.6704 28.7187 16.9375 28.7187C17.2056 28.7187 17.4677 28.6101 17.6555 28.4212C17.8455 28.2323 17.9531 27.9702 17.9531 27.7031C17.9531 27.436 17.8455 27.174 17.6555 26.9851Z" fill="#222222"/>
<path d="M14.722 39.2976C14.533 39.1086 14.271 39 14.0039 39C13.7368 39 13.4748 39.1086 13.2859 39.2976C13.097 39.4865 12.9883 39.7485 12.9883 40.0156C12.9883 40.2827 13.097 40.5448 13.2859 40.7336C13.4748 40.9225 13.7368 41.0312 14.0039 41.0312C14.272 41.0312 14.533 40.9226 14.722 40.7336C14.9109 40.5448 15.0195 40.2827 15.0195 40.0156C15.0195 39.7485 14.9109 39.4866 14.722 39.2976Z" fill="#222222"/>
</g>
<defs>
<clipPath id="clip0_4_5463">
<rect width="52" height="52" fill="white"/>
</clipPath>
</defs>
</svg>
