<svg width="52" height="52" viewBox="0 0 52 52" fill="none" xmlns="http://www.w3.org/2000/svg">
<mask id="mask0_4_5557" style="mask-type:alpha" maskUnits="userSpaceOnUse" x="0" y="0" width="52" height="52">
<g clip-path="url(#clip0_4_5557)">
<mask id="mask1_4_5557" style="mask-type:alpha" maskUnits="userSpaceOnUse" x="0" y="0" width="52" height="52">
<g clip-path="url(#clip1_4_5557)">
<path d="M47.3151 17.0625H46.3125V4.875C46.3125 2.63494 44.4901 0.8125 42.25 0.8125H39C36.7599 0.8125 34.9375 2.63494 34.9375 4.875V7.3125H23.5625V3.25C23.5625 1.90612 22.4689 0.8125 21.125 0.8125H8.125C6.78113 0.8125 5.6875 1.90612 5.6875 3.25V13C5.6875 14.3439 6.78113 15.4375 8.125 15.4375H13.8125V17.0625H4.68487C2.54962 17.0625 0.8125 18.7996 0.8125 20.9349C0.8125 21.0958 0.823062 21.2566 0.842562 21.4151L3.73425 44.5461C3.97556 46.4799 5.62738 47.9375 7.57575 47.9375H11.9413L16.2979 50.8422C16.6384 51.0681 17.0333 51.1875 17.4403 51.1875C18.5754 51.1875 19.5 50.2629 19.5 49.127V47.9375H44.4242C46.3726 47.9375 48.0252 46.4799 48.2666 44.5461L51.1582 21.4159C51.1769 21.2558 51.1875 21.0958 51.1875 20.9349C51.1875 18.7996 49.4504 17.0625 47.3151 17.0625ZM36.5625 4.875C36.5625 3.53113 37.6561 2.4375 39 2.4375H42.25C43.5939 2.4375 44.6875 3.53113 44.6875 4.875V8.9375H36.5625V4.875ZM36.5625 10.5625H44.6875V12.1875H36.5625V10.5625ZM41.4375 25.1875V13.8125H44.6875V25.1875H41.4375ZM44.1854 26.8125L41.0743 33.0346C40.9029 33.3783 40.3471 33.3775 40.1765 33.0346L37.0646 26.8125H44.1854ZM36.5625 13.8125H39.8125V25.1875H36.5625V13.8125ZM23.5625 13V8.9375H34.9375V17.0625H15.4375V15.4375H21.125C22.4689 15.4375 23.5625 14.3439 23.5625 13ZM8.125 13.8125C7.6765 13.8125 7.3125 13.4477 7.3125 13V3.25C7.3125 2.80231 7.6765 2.4375 8.125 2.4375H21.125C21.5735 2.4375 21.9375 2.80231 21.9375 3.25V13C21.9375 13.4477 21.5735 13.8125 21.125 13.8125H8.125ZM49.5454 21.2127L46.6537 44.3438C46.5132 45.4659 45.5544 46.3125 44.4242 46.3125H17.875V49.127C17.875 49.4528 17.4679 49.6681 17.1982 49.4894L12.4337 46.3125H7.57575C6.44475 46.3125 5.48681 45.4659 5.34625 44.3446L2.45456 21.2127C2.44319 21.1201 2.4375 21.0275 2.4375 20.9349C2.4375 19.6958 3.445 18.6875 4.68487 18.6875H34.9375V26.1917L38.4979 33.3125H34.125V34.9375H40.625C41.4359 34.9375 42.1647 34.4866 42.5279 33.7618L46.3125 26.1917V18.6875H47.3151C48.555 18.6875 49.5625 19.6958 49.5625 20.9349C49.5625 21.0275 49.5568 21.1201 49.5454 21.2127Z" fill="black"/>
<path d="M28.4375 27.7071V22.75C28.4375 21.4061 27.3439 20.3125 26 20.3125C24.8048 20.3125 23.8127 21.1786 23.6064 22.3145C20.6473 24.6878 16.9528 26 13.1536 26H9.75C7.50994 26 5.6875 27.8224 5.6875 30.0625V33.3125C5.6875 35.5526 7.50994 37.375 9.75 37.375H10.7234L12.3492 44.6875H17.0625V37.8528C19.4407 38.4264 21.6799 39.5143 23.6064 41.0597C23.8127 42.1964 24.8048 43.0625 26 43.0625C27.3439 43.0625 28.4375 41.9689 28.4375 40.625V35.6679C30.2892 35.2901 31.6875 33.6497 31.6875 31.6875C31.6875 29.7253 30.2892 28.0849 28.4375 27.7071ZM12.1875 35.75H9.75C8.69212 35.75 7.79838 35.0683 7.462 34.125H10.5625V32.5H7.3125V30.875H10.5625V29.25H7.462C7.79838 28.3067 8.69212 27.625 9.75 27.625H12.1875V35.75ZM15.4375 43.0625H13.6516L12.3882 37.375H13.1544C13.9222 37.375 14.6835 37.4433 15.4383 37.5481V43.0625H15.4375ZM23.5625 38.9935C20.6944 37.0183 17.3038 35.9052 13.8125 35.7792V27.5958C17.3038 27.469 20.6944 26.3567 23.5625 24.3815V38.9935ZM26.8125 40.625C26.8125 41.0727 26.4485 41.4375 26 41.4375C25.5515 41.4375 25.1875 41.0727 25.1875 40.625V22.75C25.1875 22.3023 25.5515 21.9375 26 21.9375C26.4485 21.9375 26.8125 22.3023 26.8125 22.75V40.625ZM28.4375 33.9755V29.4003C29.3808 29.7367 30.0625 30.6304 30.0625 31.6883C30.0625 32.7462 29.3808 33.6391 28.4375 33.9755Z" fill="black"/>
<path d="M17.5118 6.22213L13.6411 4.28675C13.3477 4.1405 13.0179 4.0625 12.6896 4.0625C11.5172 4.0625 10.5625 5.01638 10.5625 6.18963V10.0604C10.5625 11.2336 11.5172 12.1875 12.6896 12.1875C13.0179 12.1875 13.3477 12.1095 13.6411 11.9633L17.5118 10.0279C18.2366 9.6655 18.6875 8.93587 18.6875 8.125C18.6875 7.31413 18.2366 6.5845 17.5118 6.22213ZM16.7846 8.57431L12.9139 10.5097C12.6003 10.6689 12.1875 10.4154 12.1867 10.0604V6.18963C12.1875 5.91256 12.4126 5.6875 12.6896 5.6875C12.7676 5.6875 12.8448 5.70538 12.9139 5.74031L16.7846 7.67569C16.9561 7.76181 17.0625 7.93325 17.0625 8.125C17.0625 8.31675 16.9561 8.48819 16.7846 8.57431Z" fill="black"/>
<path d="M34.125 36.5625H45.5V38.1875H34.125V36.5625Z" fill="black"/>
<path d="M34.125 39.8125H45.5V41.4375H34.125V39.8125Z" fill="black"/>
<path d="M40.625 43.0625H42.25V44.6875H40.625V43.0625Z" fill="black"/>
<path d="M43.875 43.0625H45.5V44.6875H43.875V43.0625Z" fill="black"/>
<path d="M34.125 43.0625H35.75V44.6875H34.125V43.0625Z" fill="black"/>
<path d="M37.375 43.0625H39V44.6875H37.375V43.0625Z" fill="black"/>
</g>
</mask>
<g mask="url(#mask1_4_5557)">
<rect width="52" height="52" fill="black"/>
</g>
</g>
</mask>
<g mask="url(#mask0_4_5557)">
<rect width="52" height="52" fill="#222222"/>
</g>
<defs>
<clipPath id="clip0_4_5557">
<rect width="52" height="52" fill="white"/>
</clipPath>
<clipPath id="clip1_4_5557">
<rect width="52" height="52" fill="white"/>
</clipPath>
</defs>
</svg>
