<svg width="14" height="14" viewBox="0 0 14 14" fill="none" xmlns="http://www.w3.org/2000/svg">
<path fill-rule="evenodd" clip-rule="evenodd" d="M8.75 7.0026H7.58333V5.83594C7.58333 5.51335 7.322 5.2526 7 5.2526C6.678 5.2526 6.41667 5.51335 6.41667 5.83594V7.58594C6.41667 7.90852 6.678 8.16927 7 8.16927H8.75C9.072 8.16927 9.33333 7.90852 9.33333 7.58594C9.33333 7.26335 9.072 7.0026 8.75 7.0026ZM7 11.5234C4.82883 11.5234 3.0625 9.7571 3.0625 7.58594C3.0625 5.41477 4.82883 3.64844 7 3.64844C9.17117 3.64844 10.9375 5.41477 10.9375 7.58594C10.9375 9.7571 9.17117 11.5234 7 11.5234ZM7.57633 2.36977C7.5775 2.35752 7.58333 2.34819 7.58333 2.33594V1.7526H8.16667C8.48867 1.7526 8.75 1.49185 8.75 1.16927C8.75 0.846688 8.48867 0.585938 8.16667 0.585938H5.83333C5.51133 0.585938 5.25 0.846688 5.25 1.16927C5.25 1.49185 5.51133 1.7526 5.83333 1.7526H6.41667V2.33594C6.41667 2.34819 6.4225 2.35752 6.42367 2.36977C3.79925 2.65794 1.75 4.88627 1.75 7.58594C1.75 10.481 4.1055 12.8359 7 12.8359C9.8945 12.8359 12.25 10.481 12.25 7.58594C12.25 4.88627 10.2007 2.65794 7.57633 2.36977Z" fill="white"/>
<mask id="mask0_4_5915" style="mask-type:luminance" maskUnits="userSpaceOnUse" x="1" y="0" width="12" height="13">
<path fill-rule="evenodd" clip-rule="evenodd" d="M8.75 7.0026H7.58333V5.83594C7.58333 5.51335 7.322 5.2526 7 5.2526C6.678 5.2526 6.41667 5.51335 6.41667 5.83594V7.58594C6.41667 7.90852 6.678 8.16927 7 8.16927H8.75C9.072 8.16927 9.33333 7.90852 9.33333 7.58594C9.33333 7.26335 9.072 7.0026 8.75 7.0026ZM7 11.5234C4.82883 11.5234 3.0625 9.7571 3.0625 7.58594C3.0625 5.41477 4.82883 3.64844 7 3.64844C9.17117 3.64844 10.9375 5.41477 10.9375 7.58594C10.9375 9.7571 9.17117 11.5234 7 11.5234ZM7.57633 2.36977C7.5775 2.35752 7.58333 2.34819 7.58333 2.33594V1.7526H8.16667C8.48867 1.7526 8.75 1.49185 8.75 1.16927C8.75 0.846688 8.48867 0.585938 8.16667 0.585938H5.83333C5.51133 0.585938 5.25 0.846688 5.25 1.16927C5.25 1.49185 5.51133 1.7526 5.83333 1.7526H6.41667V2.33594C6.41667 2.34819 6.4225 2.35752 6.42367 2.36977C3.79925 2.65794 1.75 4.88627 1.75 7.58594C1.75 10.481 4.1055 12.8359 7 12.8359C9.8945 12.8359 12.25 10.481 12.25 7.58594C12.25 4.88627 10.2007 2.65794 7.57633 2.36977Z" fill="white"/>
</mask>
<g mask="url(#mask0_4_5915)">
<rect width="14" height="14" fill="#FF902A"/>
</g>
</svg>
