<svg width="14" height="14" viewBox="0 0 14 14" fill="none" xmlns="http://www.w3.org/2000/svg">
<path fill-rule="evenodd" clip-rule="evenodd" d="M4.08288 6.41885C4.08288 6.09685 4.34422 5.83551 4.66622 5.83551C4.98822 5.83551 5.24955 6.09685 5.24955 6.41885C5.24955 6.74085 4.98822 7.00218 4.66622 7.00218C4.34422 7.00218 4.08288 6.74085 4.08288 6.41885ZM6.99955 5.83551C6.67755 5.83551 6.41622 6.09685 6.41622 6.41885C6.41622 6.74085 6.67755 7.00218 6.99955 7.00218C7.32155 7.00218 7.58288 6.74085 7.58288 6.41885C7.58288 6.09685 7.32155 5.83551 6.99955 5.83551ZM9.33288 5.83551C9.01088 5.83551 8.74955 6.09685 8.74955 6.41885C8.74955 6.74085 9.01088 7.00218 9.33288 7.00218C9.65488 7.00218 9.91621 6.74085 9.91621 6.41885C9.91621 6.09685 9.65488 5.83551 9.33288 5.83551ZM11.6069 7.1742C11.3112 9.07237 9.78108 10.6468 7.88583 11.002C6.97058 11.1747 6.03842 11.0761 5.19258 10.7179C4.95283 10.6164 4.70492 10.5651 4.46167 10.5651C4.35083 10.5651 4.24117 10.5756 4.13325 10.5972L2.49292 10.925L2.82133 9.28178C2.89017 8.94053 2.84817 8.57537 2.70058 8.22595C2.34242 7.38012 2.24442 6.44853 2.4165 5.5327C2.77175 3.63745 4.34558 2.10737 6.24433 1.81162C7.75517 1.57653 9.23275 2.05253 10.2991 3.11887C11.366 4.18578 11.8426 5.66395 11.6069 7.1742ZM11.1244 2.29404C9.79153 0.961704 7.9482 0.367287 6.06462 0.658371C3.68637 1.02937 1.7147 2.94504 1.26962 5.31745C1.05495 6.45962 1.17862 7.62279 1.62603 8.68037C1.68262 8.81512 1.70012 8.94054 1.67795 9.05312L1.17745 11.5545C1.13895 11.7458 1.19903 11.9435 1.33728 12.0812C1.44753 12.192 1.59628 12.2521 1.7497 12.2521C1.78762 12.2521 1.82553 12.2486 1.86403 12.241L4.36245 11.7411C4.50595 11.7137 4.64478 11.754 4.73753 11.7925C5.79628 12.2399 6.95945 12.363 8.10045 12.1489C10.4734 11.7038 12.3891 9.73212 12.7601 7.35387C13.0529 5.47145 12.4574 3.62695 11.1244 2.29404Z" fill="white"/>
<mask id="mask0_4_5934" style="mask-type:luminance" maskUnits="userSpaceOnUse" x="1" y="0" width="12" height="13">
<path fill-rule="evenodd" clip-rule="evenodd" d="M4.08288 6.41885C4.08288 6.09685 4.34422 5.83551 4.66622 5.83551C4.98822 5.83551 5.24955 6.09685 5.24955 6.41885C5.24955 6.74085 4.98822 7.00218 4.66622 7.00218C4.34422 7.00218 4.08288 6.74085 4.08288 6.41885ZM6.99955 5.83551C6.67755 5.83551 6.41622 6.09685 6.41622 6.41885C6.41622 6.74085 6.67755 7.00218 6.99955 7.00218C7.32155 7.00218 7.58288 6.74085 7.58288 6.41885C7.58288 6.09685 7.32155 5.83551 6.99955 5.83551ZM9.33288 5.83551C9.01088 5.83551 8.74955 6.09685 8.74955 6.41885C8.74955 6.74085 9.01088 7.00218 9.33288 7.00218C9.65488 7.00218 9.91621 6.74085 9.91621 6.41885C9.91621 6.09685 9.65488 5.83551 9.33288 5.83551ZM11.6069 7.1742C11.3112 9.07237 9.78108 10.6468 7.88583 11.002C6.97058 11.1747 6.03842 11.0761 5.19258 10.7179C4.95283 10.6164 4.70492 10.5651 4.46167 10.5651C4.35083 10.5651 4.24117 10.5756 4.13325 10.5972L2.49292 10.925L2.82133 9.28178C2.89017 8.94053 2.84817 8.57537 2.70058 8.22595C2.34242 7.38012 2.24442 6.44853 2.4165 5.5327C2.77175 3.63745 4.34558 2.10737 6.24433 1.81162C7.75517 1.57653 9.23275 2.05253 10.2991 3.11887C11.366 4.18578 11.8426 5.66395 11.6069 7.1742ZM11.1244 2.29404C9.79153 0.961704 7.9482 0.367287 6.06462 0.658371C3.68637 1.02937 1.7147 2.94504 1.26962 5.31745C1.05495 6.45962 1.17862 7.62279 1.62603 8.68037C1.68262 8.81512 1.70012 8.94054 1.67795 9.05312L1.17745 11.5545C1.13895 11.7458 1.19903 11.9435 1.33728 12.0812C1.44753 12.192 1.59628 12.2521 1.7497 12.2521C1.78762 12.2521 1.82553 12.2486 1.86403 12.241L4.36245 11.7411C4.50595 11.7137 4.64478 11.754 4.73753 11.7925C5.79628 12.2399 6.95945 12.363 8.10045 12.1489C10.4734 11.7038 12.3891 9.73212 12.7601 7.35387C13.0529 5.47145 12.4574 3.62695 11.1244 2.29404Z" fill="white"/>
</mask>
<g mask="url(#mask0_4_5934)">
<rect width="14" height="14" fill="#FF902A"/>
</g>
</svg>
