<svg width="51" height="50" viewBox="0 0 51 50" fill="none" xmlns="http://www.w3.org/2000/svg">
<g clip-path="url(#clip0_4_5829)">
<path d="M50.2139 9.17148L41.3271 0.286035C41.144 0.10293 40.8957 0 40.6367 0H11.6328C10.0174 0 8.70312 1.31426 8.70312 2.92969V4.79141C3.90576 6.67324 0.5 11.3491 0.5 16.8058C0.5 17.345 0.937305 17.7823 1.47656 17.7823H13.3995C13.9388 17.7823 14.3761 17.345 14.3761 16.8058V4.88281C14.3761 4.34355 13.9388 3.90625 13.3995 3.90625C12.4583 3.90625 11.5407 4.0085 10.6562 4.20088V2.92969C10.6562 2.39121 11.0943 1.95312 11.6328 1.95312H39.6602V7.91016C39.6602 9.52559 40.9744 10.8398 42.5898 10.8398H48.5469V47.0703C48.5469 47.6088 48.1088 48.0469 47.5703 48.0469H11.6328C11.0943 48.0469 10.6562 47.6088 10.6562 47.0703V38.7044C10.6562 38.1651 10.2189 37.7278 9.67969 37.7278C9.14043 37.7278 8.70312 38.1651 8.70312 38.7044V47.0703C8.70312 48.6857 10.0174 50 11.6328 50H47.5703C49.1857 50 50.5 48.6857 50.5 47.0703V9.86201C50.5 9.60303 50.3971 9.35459 50.2139 9.17148ZM12.4229 5.90264V15.8292H2.49629C2.96318 10.5706 7.16436 6.36953 12.4229 5.90264ZM42.5898 8.88672C42.0514 8.88672 41.6133 8.44863 41.6133 7.91016V3.33398L47.1668 8.88672H42.5898Z" fill="#FF902A"/>
<path d="M10.37 34.4658C10.1885 34.2841 9.93652 34.1797 9.67969 34.1797C9.42285 34.1797 9.1709 34.2841 8.98926 34.4658C8.80762 34.6475 8.70312 34.8994 8.70312 35.1562C8.70312 35.4131 8.80752 35.665 8.98926 35.8466C9.1709 36.0283 9.42285 36.1328 9.67969 36.1328C9.93652 36.1328 10.1885 36.0283 10.37 35.8466C10.5518 35.665 10.6562 35.4131 10.6562 35.1562C10.6562 34.8994 10.5518 34.6475 10.37 34.4658Z" fill="#FF902A"/>
<path d="M16.8975 7.40625C16.3582 7.40625 15.9209 7.84355 15.9209 8.38281V19.3291H4.97461C4.43535 19.3291 3.99805 19.7664 3.99805 20.3057C3.99805 27.4185 9.78467 33.2052 16.8975 33.2052C24.0103 33.2052 29.797 27.4185 29.797 20.3057C29.797 13.1929 24.0103 7.40625 16.8975 7.40625ZM17.874 9.40264C20.1602 9.60557 22.2462 10.5147 23.9127 11.9095L17.874 17.948V9.40264ZM16.8975 31.2521C11.1907 31.2521 6.48984 26.8625 5.99443 21.2822H16.8975C17.167 21.2822 17.4109 21.173 17.5877 20.9965C17.5878 20.9964 17.5879 20.9964 17.5881 20.9962L25.294 13.2903C26.885 15.1914 27.8438 17.6387 27.8438 20.3057C27.8438 26.3415 22.9333 31.2521 16.8975 31.2521Z" fill="#FF902A"/>
<path d="M43.282 30.8203C41.6666 30.8203 40.3523 32.1346 40.3523 33.75C40.3523 34.1549 40.435 34.5407 40.5841 34.8918L34.9578 40.5181C34.5712 40.3297 34.1372 40.2237 33.679 40.2237C33.2316 40.2237 32.8076 40.3249 32.428 40.5049L28.6919 36.7687C28.8214 36.4383 28.8933 36.079 28.8933 35.703C28.8933 34.0876 27.579 32.7733 25.9636 32.7733C24.3481 32.7733 23.0339 34.0876 23.0339 35.703C23.0339 36.1407 23.1311 36.556 23.3039 36.9293L19.7204 40.5128C19.3387 40.3302 18.9115 40.2277 18.4609 40.2277C16.8455 40.2277 15.5312 41.542 15.5312 43.1574C15.5312 44.7729 16.8455 46.0871 18.4609 46.0871C20.0764 46.0871 21.3906 44.7729 21.3906 43.1574C21.3906 42.7046 21.2873 42.2755 21.1031 41.8924L24.6666 38.3289C25.0579 38.523 25.4981 38.6327 25.9638 38.6327C26.4896 38.6327 26.9831 38.4928 27.4102 38.2492L31.0409 41.88C30.8542 42.2652 30.7493 42.6973 30.7493 43.1534C30.7493 44.7688 32.0636 46.0831 33.679 46.0831C35.2944 46.0831 36.6087 44.7688 36.6087 43.1534C36.6087 42.7083 36.5085 42.2862 36.3301 41.9081L41.9038 36.3344C42.3148 36.5545 42.7841 36.6797 43.282 36.6797C44.8975 36.6797 46.2117 35.3654 46.2117 33.75C46.2117 32.1346 44.8975 30.8203 43.282 30.8203ZM18.4608 44.1341C17.9224 44.1341 17.4843 43.696 17.4843 43.1575C17.4843 42.619 17.9224 42.181 18.4608 42.181C18.723 42.181 18.9608 42.2853 19.1364 42.4541C19.1403 42.4582 19.1438 42.4626 19.1478 42.4666C19.1524 42.4713 19.1575 42.4752 19.1623 42.4797C19.3322 42.6555 19.4374 42.8943 19.4374 43.1575C19.4374 43.6959 18.9993 44.1341 18.4608 44.1341ZM25.9636 36.6796C25.4251 36.6796 24.987 36.2415 24.987 35.703C24.987 35.1646 25.4251 34.7265 25.9636 34.7265C26.5021 34.7265 26.9401 35.1646 26.9401 35.703C26.9401 36.2415 26.5021 36.6796 25.9636 36.6796ZM33.6788 44.13C33.1403 44.13 32.7022 43.6919 32.7022 43.1534C32.7022 42.6149 33.1403 42.1769 33.6788 42.1769C34.2173 42.1769 34.6554 42.6149 34.6554 43.1534C34.6554 43.6919 34.2173 44.13 33.6788 44.13ZM43.2818 34.7265C42.7434 34.7265 42.3053 34.2884 42.3053 33.7499C42.3053 33.2114 42.7435 32.7733 43.2818 32.7733C43.8203 32.7733 44.2584 33.2114 44.2584 33.7499C44.2584 34.2884 43.8203 34.7265 43.2818 34.7265Z" fill="#FF902A"/>
<path d="M38.4003 22.9531H33.2461C32.7068 22.9531 32.2695 23.3904 32.2695 23.9297C32.2695 24.4689 32.7067 24.9062 33.2461 24.9062H38.4003C38.9395 24.9062 39.3769 24.4689 39.3769 23.9297C39.3769 23.3904 38.9395 22.9531 38.4003 22.9531Z" fill="#FF902A"/>
<path d="M43.536 23.2393C43.3545 23.0576 43.1025 22.9531 42.8457 22.9531C42.5889 22.9531 42.3369 23.0575 42.1553 23.2393C41.9736 23.4209 41.8691 23.6729 41.8691 23.9297C41.8691 24.1865 41.9735 24.4385 42.1553 24.62C42.3369 24.8017 42.5879 24.9062 42.8457 24.9062C43.1025 24.9062 43.3545 24.8018 43.536 24.62C43.7177 24.4385 43.8223 24.1865 43.8223 23.9297C43.8223 23.6729 43.7178 23.4209 43.536 23.2393Z" fill="#FF902A"/>
<path d="M45.1752 13.5781H33.2461C32.7068 13.5781 32.2695 14.0154 32.2695 14.5547C32.2695 15.0939 32.7067 15.5312 33.2461 15.5312H45.1752C45.7145 15.5312 46.1518 15.0939 46.1518 14.5547C46.1518 14.0154 45.7145 13.5781 45.1752 13.5781Z" fill="#FF902A"/>
<path d="M45.1752 18.2656H33.2461C32.7068 18.2656 32.2695 18.7029 32.2695 19.2422C32.2695 19.7814 32.7067 20.2188 33.2461 20.2188H45.1752C45.7145 20.2188 46.1518 19.7814 46.1518 19.2422C46.1518 18.7029 45.7145 18.2656 45.1752 18.2656Z" fill="#FF902A"/>
</g>
<defs>
<clipPath id="clip0_4_5829">
<rect width="50" height="50" fill="white" transform="translate(0.5)"/>
</clipPath>
</defs>
</svg>
