<svg width="51" height="50" viewBox="0 0 51 50" fill="none" xmlns="http://www.w3.org/2000/svg">
<path d="M2.21883 39.5313L4.29174 42.2951L2.12576 47.3484C1.99453 47.6551 2.07158 48.011 2.31878 48.235C2.46602 48.3685 2.65447 48.4375 2.84368 48.4375C2.97262 48.4375 3.10231 48.4059 3.21981 48.3406L18.8448 39.7469C19.0951 39.6099 19.2499 39.3475 19.2499 39.0625C19.2499 38.7776 19.0951 38.5151 18.8448 38.3782L3.21981 29.7844C2.9299 29.6238 2.56597 29.6654 2.31878 29.8901C2.07158 30.114 1.99453 30.4699 2.12576 30.7766L4.29174 35.8299L2.21883 38.5937C2.01055 38.8714 2.01055 39.2536 2.21883 39.5313ZM5.74995 42.858L13.0841 41.1323L4.45577 45.8779L5.74995 42.858ZM13.0841 36.9927L5.74995 35.267L4.45576 32.2472L13.0841 36.9927ZM5.50562 36.8152L15.0566 39.0625L5.50562 41.3098L3.82024 39.0625L5.50562 36.8152Z" fill="#FF902A"/>
<path d="M36.4375 1.5625C29.8088 1.5625 24.3837 6.7532 23.9771 13.2812H21.9172L19.8024 11.1664L18.6976 12.2711L19.7078 13.2812H16.5156C11.9922 13.2812 8.3125 16.9613 8.3125 21.4844C8.3125 26.0075 11.9922 29.6875 16.5156 29.6875H25.1765L27.2914 31.8024L28.3961 30.6976L27.386 29.6875H42.2969C44.6658 29.6875 46.5938 31.6151 46.5938 33.9844C46.5938 36.3537 44.6658 38.2812 42.2969 38.2812H35.1985L33.0836 36.1664L31.9789 37.2711L32.989 38.2812H20.8125V39.8438H32.989L31.9789 40.8539L33.0836 41.9586L35.1985 39.8438H42.2969C45.5279 39.8438 48.1562 37.2154 48.1562 33.9844C48.1562 30.7533 45.5279 28.125 42.2969 28.125H27.386L28.3961 27.1149L27.2914 26.0101L25.1765 28.125H16.5156C12.8543 28.125 9.875 25.1461 9.875 21.4844C9.875 17.8226 12.8543 14.8438 16.5156 14.8438H19.7078L18.6976 15.8539L19.8024 16.9586L21.9172 14.8438H23.9771C24.3837 21.3718 29.8088 26.5625 36.4375 26.5625C43.3299 26.5625 48.9375 20.9549 48.9375 14.0625C48.9375 7.1701 43.3299 1.5625 36.4375 1.5625ZM36.4375 25C30.6702 25 25.9429 20.5101 25.5396 14.8438H27.8833C28.2798 19.2171 31.9626 22.6562 36.4375 22.6562C41.1761 22.6562 45.0312 18.8011 45.0312 14.0625C45.0312 9.32388 41.1761 5.46875 36.4375 5.46875C31.9626 5.46875 28.2798 8.90789 27.8833 13.2812H25.5396C25.9429 7.6149 30.6702 3.125 36.4375 3.125C42.4685 3.125 47.375 8.03146 47.375 14.0625C47.375 20.0935 42.4685 25 36.4375 25ZM34.6461 16.9586L36.9899 14.6149C37.295 14.3097 37.295 13.8153 36.9899 13.5101L34.6461 11.1664L33.5414 12.2711L34.5515 13.2812H29.4524C29.8426 9.77111 32.8246 7.03125 36.4375 7.03125C40.3148 7.03125 43.4688 10.1856 43.4688 14.0625C43.4688 17.9394 40.3148 21.0938 36.4375 21.0938C32.8246 21.0938 29.8426 18.3539 29.4524 14.8438H34.5515L33.5414 15.8539L34.6461 16.9586Z" fill="#FF902A"/>
<path d="M41.125 14.0625C41.125 11.4777 39.0223 9.375 36.4375 9.375V10.9375C38.161 10.9375 39.5625 12.3394 39.5625 14.0625C39.5625 15.7856 38.161 17.1875 36.4375 17.1875V18.75C39.0223 18.75 41.125 16.6473 41.125 14.0625Z" fill="#FF902A"/>
</svg>
