<svg width="69" height="70" viewBox="0 0 69 70" fill="none" xmlns="http://www.w3.org/2000/svg">
<ellipse cx="34.5" cy="35" rx="34.5" ry="31" fill="white"/>
<path d="M11.5489 52.0363C11.9965 52.4921 12.3395 53.0425 12.5534 53.6482C12.7674 54.254 12.847 54.9001 12.7866 55.5406C12.4835 58.505 11.9089 61.4343 11.0702 64.2906C17.0861 62.8775 20.7604 61.2412 22.4293 60.3838C23.3759 59.8974 24.4661 59.7821 25.4912 60.06C28.4299 60.8548 31.4587 61.2549 34.5 61.25C51.7327 61.25 64.6875 48.9694 64.6875 35C64.6875 21.035 51.7327 8.75 34.5 8.75C17.2673 8.75 4.3125 21.035 4.3125 35C4.3125 41.4225 6.97331 47.3812 11.5489 52.0363ZM9.42281 69.1206C8.40104 69.3261 7.37596 69.5143 6.348 69.685C5.4855 69.825 4.83 68.915 5.17069 68.1012C5.5536 67.1851 5.90457 66.2556 6.22294 65.3144L6.23588 65.2706C7.30538 62.1206 8.1765 58.4981 8.49563 55.125C3.20419 49.7438 0 42.7 0 35C0 18.0863 15.4474 4.375 34.5 4.375C53.5526 4.375 69 18.0863 69 35C69 51.9137 53.5526 65.625 34.5 65.625C31.083 65.6297 27.6802 65.1796 24.3786 64.2863C22.1361 65.4369 17.3104 67.5325 9.42281 69.1206Z" fill="#5046B9"/>
<path d="M30.4722 29.575C29.6322 28.2478 28.3902 27.2331 26.933 26.6834C25.4758 26.1336 23.8821 26.0785 22.3914 26.5264C20.9007 26.9743 19.5935 27.9009 18.6664 29.167C17.7393 30.4331 17.2423 31.9703 17.2501 33.5475C17.2509 34.8536 17.5974 36.1355 18.2534 37.2593C18.9094 38.3831 19.8508 39.3076 20.9794 39.9361C22.1079 40.5647 23.3821 40.8743 24.6689 40.8325C25.9557 40.7907 27.2078 40.3992 28.2944 39.6987C27.7295 41.4006 26.6772 43.2162 24.9436 45.0362C24.6119 45.3843 24.4301 45.8518 24.4382 46.3359C24.4422 46.5756 24.4927 46.8122 24.5868 47.032C24.6809 47.2519 24.8168 47.4509 24.9867 47.6175C25.1566 47.7841 25.3572 47.9151 25.577 48.0031C25.7968 48.0911 26.0316 48.1343 26.2678 48.1302C26.745 48.122 27.1994 47.9218 27.5311 47.5737C33.9395 40.8362 33.1072 33.5125 30.4722 29.5837V29.575ZM47.7222 29.575C46.8822 28.2478 45.6402 27.2331 44.183 26.6834C42.7258 26.1336 41.1321 26.0785 39.6414 26.5264C38.1507 26.9743 36.8435 27.9009 35.9164 29.167C34.9893 30.4331 34.4923 31.9703 34.5001 33.5475C34.5009 34.8536 34.8474 36.1355 35.5034 37.2593C36.1594 38.3831 37.1008 39.3076 38.2294 39.9361C39.3579 40.5647 40.6321 40.8743 41.9189 40.8325C43.2057 40.7907 44.4578 40.3992 45.5444 39.6987C44.9795 41.4006 43.9272 43.2162 42.1936 45.0362C42.0294 45.2086 41.9002 45.4121 41.8135 45.6351C41.7268 45.8581 41.6842 46.0962 41.6882 46.3359C41.6922 46.5756 41.7427 46.8122 41.8368 47.032C41.9309 47.2519 42.0668 47.4509 42.2367 47.6175C42.4066 47.7841 42.6072 47.9151 42.827 48.0031C43.0468 48.0911 43.2816 48.1343 43.5178 48.1302C43.7541 48.1261 43.9873 48.0749 44.204 47.9794C44.4208 47.8839 44.6169 47.7461 44.7811 47.5737C51.1895 40.8362 50.3572 33.5125 47.7222 29.5837V29.575Z" fill="#5046B9"/>
</svg>
