<svg width="172" height="42" viewBox="0 0 172 42" fill="none" xmlns="http://www.w3.org/2000/svg">
<path d="M10.2258 3.73612C13.0902 3.73612 15.603 4.29598 17.7644 5.4157C19.9517 6.53542 21.6313 8.13688 22.8031 10.2201C24.0009 12.2772 24.5999 14.6729 24.5999 17.4071C24.5999 20.1413 24.0009 22.537 22.8031 24.5942C21.6313 26.6253 19.9517 28.2007 17.7644 29.3204C15.603 30.4401 13.0902 31 10.2258 31H0.69514V3.73612H10.2258ZM10.0305 26.3519C12.8949 26.3519 15.1083 25.5707 16.6707 24.0083C18.2331 22.4459 19.0143 20.2455 19.0143 17.4071C19.0143 14.5688 18.2331 12.3554 16.6707 10.7669C15.1083 9.15244 12.8949 8.3452 10.0305 8.3452H6.16354V26.3519H10.0305ZM31.4665 6.7828C30.503 6.7828 29.6958 6.48334 29.0448 5.88442C28.4198 5.25946 28.1073 4.49128 28.1073 3.57988C28.1073 2.66848 28.4198 1.91332 29.0448 1.3144C29.6958 0.689437 30.503 0.376957 31.4665 0.376957C32.43 0.376957 33.2242 0.689437 33.8491 1.3144C34.5001 1.91332 34.8256 2.66848 34.8256 3.57988C34.8256 4.49128 34.5001 5.25946 33.8491 5.88442C33.2242 6.48334 32.43 6.7828 31.4665 6.7828ZM34.1616 9.36076V31H28.6932V9.36076H34.1616ZM48.0404 9.00922C49.6549 9.00922 51.0741 9.33472 52.298 9.98572C53.5219 10.6107 54.4853 11.4309 55.1884 12.4465V9.36076H60.6959V31.1562C60.6959 33.1613 60.2923 34.9451 59.485 36.5075C58.6778 38.0959 57.4669 39.3458 55.8524 40.2572C54.238 41.1947 52.285 41.6634 49.9934 41.6634C46.9207 41.6634 44.3948 40.9473 42.4158 39.5151C40.4628 38.0829 39.3561 36.1299 39.0957 33.6561H44.525C44.8115 34.6456 45.4234 35.4268 46.3609 35.9997C47.3243 36.5986 48.4831 36.8981 49.8372 36.8981C51.4256 36.8981 52.7146 36.4163 53.7041 35.4528C54.6937 34.5154 55.1884 33.0832 55.1884 31.1562V27.7971C54.4853 28.8126 53.5088 29.6589 52.2589 30.336C51.035 31.013 49.6289 31.3515 48.0404 31.3515C46.2176 31.3515 44.5511 30.8828 43.0408 29.9454C41.5304 29.0079 40.3326 27.6929 39.4472 26.0003C38.5879 24.2817 38.1583 22.3157 38.1583 20.1023C38.1583 17.9149 38.5879 15.9749 39.4472 14.2823C40.3326 12.5897 41.5174 11.2877 43.0017 10.3763C44.512 9.46492 46.1916 9.00922 48.0404 9.00922ZM55.1884 20.1804C55.1884 18.8523 54.928 17.7196 54.4072 16.7822C53.8864 15.8187 53.1833 15.0896 52.298 14.5948C51.4126 14.074 50.4622 13.8136 49.4466 13.8136C48.431 13.8136 47.4936 14.061 46.6343 14.5557C45.775 15.0505 45.0719 15.7796 44.525 16.7431C44.0042 17.6805 43.7438 18.8003 43.7438 20.1023C43.7438 21.4043 44.0042 22.55 44.525 23.5395C45.0719 24.503 45.775 25.2452 46.6343 25.766C47.5196 26.2868 48.4571 26.5472 49.4466 26.5472C50.4622 26.5472 51.4126 26.2998 52.298 25.805C53.1833 25.2842 53.8864 24.5551 54.4072 23.6177C54.928 22.6542 55.1884 21.5084 55.1884 20.1804ZM68.81 6.7828C67.8465 6.7828 67.0393 6.48334 66.3883 5.88442C65.7633 5.25946 65.4508 4.49128 65.4508 3.57988C65.4508 2.66848 65.7633 1.91332 66.3883 1.3144C67.0393 0.689437 67.8465 0.376957 68.81 0.376957C69.7735 0.376957 70.5677 0.689437 71.1926 1.3144C71.8436 1.91332 72.1691 2.66848 72.1691 3.57988C72.1691 4.49128 71.8436 5.25946 71.1926 5.88442C70.5677 6.48334 69.7735 6.7828 68.81 6.7828ZM71.5051 9.36076V31H66.0367V9.36076H71.5051Z" fill="#5046B9"/>
<path d="M97.0238 19.7117C97.0238 20.4929 96.9717 21.1959 96.8676 21.8209H81.0483C81.1785 23.3833 81.7253 24.6072 82.6888 25.4925C83.6523 26.3779 84.8371 26.8206 86.2433 26.8206C88.2744 26.8206 89.7196 25.9482 90.5789 24.2036H96.477C95.852 26.2868 94.6542 28.0054 92.8835 29.3595C91.1127 30.6875 88.9384 31.3515 86.3604 31.3515C84.2772 31.3515 82.4024 30.8958 80.7358 29.9844C79.0953 29.047 77.8063 27.732 76.8689 26.0394C75.9575 24.3468 75.5018 22.3938 75.5018 20.1804C75.5018 17.9409 75.9575 15.9749 76.8689 14.2823C77.7803 12.5897 79.0562 11.2877 80.6967 10.3763C82.3373 9.46492 84.2252 9.00922 86.3604 9.00922C88.4176 9.00922 90.2534 9.4519 91.8679 10.3373C93.5084 11.2226 94.7714 12.4856 95.6567 14.1261C96.5681 15.7406 97.0238 17.6024 97.0238 19.7117ZM91.3601 18.1493C91.3341 16.7431 90.8263 15.6234 89.8368 14.7901C88.8473 13.9308 87.6364 13.5011 86.2042 13.5011C84.8501 13.5011 83.7044 13.9178 82.7669 14.751C81.8555 15.5583 81.2957 16.691 81.0873 18.1493H91.3601ZM113.007 9.04828C115.585 9.04828 117.668 9.86854 119.256 11.5091C120.845 13.1235 121.639 15.389 121.639 18.3055V31H116.171V19.0476C116.171 17.329 115.741 16.014 114.882 15.1026C114.022 14.1651 112.85 13.6964 111.366 13.6964C109.856 13.6964 108.658 14.1651 107.773 15.1026C106.913 16.014 106.484 17.329 106.484 19.0476V31H101.015V9.36076H106.484V12.0559C107.213 11.1185 108.137 10.3893 109.257 9.86854C110.403 9.3217 111.653 9.04828 113.007 9.04828ZM125.433 20.1804C125.433 17.9409 125.889 15.9879 126.8 14.3214C127.711 12.6288 128.974 11.3268 130.589 10.4154C132.203 9.47794 134.052 9.00922 136.135 9.00922C138.818 9.00922 141.031 9.68626 142.776 11.0403C144.546 12.3684 145.731 14.2433 146.33 16.665H140.432C140.12 15.7275 139.586 14.9984 138.831 14.4776C138.101 13.9308 137.19 13.6574 136.096 13.6574C134.534 13.6574 133.297 14.2302 132.386 15.376C131.474 16.4957 131.019 18.0972 131.019 20.1804C131.019 22.2375 131.474 23.839 132.386 24.9848C133.297 26.1045 134.534 26.6643 136.096 26.6643C138.31 26.6643 139.755 25.6748 140.432 23.6958H146.33C145.731 26.0394 144.546 27.9012 142.776 29.2814C141.005 30.6615 138.791 31.3515 136.135 31.3515C134.052 31.3515 132.203 30.8958 130.589 29.9844C128.974 29.047 127.711 27.745 126.8 26.0784C125.889 24.3858 125.433 22.4198 125.433 20.1804ZM171.038 9.36076L157.64 41.2337H151.82L156.508 30.4532L147.836 9.36076H153.969L159.554 24.477L165.218 9.36076H171.038Z" fill="#373737"/>
</svg>
