<svg width="100%" height="100%" viewBox="0 0 1198 409" fill="none" xmlns="http://www.w3.org/2000/svg" preserveAspectRatio="none">
<g filter="url(#filter0_d_4_5778)">
<path d="M590.706 368.5C594.17 374.5 602.83 374.5 606.294 368.5L632.708 322.75C636.172 316.75 631.842 309.25 624.914 309.25H572.086C565.158 309.25 560.828 316.75 564.292 322.75L590.706 368.5Z" fill="white"/>
<path d="M29 62C29 39.9086 46.9086 22 69 22H1129C1151.09 22 1169 39.9086 1169 62V283.718C1169 305.809 1151.09 323.718 1129 323.718H69C46.9086 323.718 29 305.809 29 283.718V62Z" fill="white"/>
</g>
<defs>
<filter id="filter0_d_4_5778" x="0" y="0" width="1198" height="409" filterUnits="userSpaceOnUse" color-interpolation-filters="sRGB">
<feFlood flood-opacity="0" result="BackgroundImageFix"/>
<feColorMatrix in="SourceAlpha" type="matrix" values="0 0 0 0 0 0 0 0 0 0 0 0 0 0 0 0 0 0 127 0" result="hardAlpha"/>
<feOffset dy="7"/>
<feGaussianBlur stdDeviation="14.5"/>
<feComposite in2="hardAlpha" operator="out"/>
<feColorMatrix type="matrix" values="0 0 0 0 0.431373 0 0 0 0 0.431373 0 0 0 0 0.435294 0 0 0 0.2 0"/>
<feBlend mode="normal" in2="BackgroundImageFix" result="effect1_dropShadow_4_5778"/>
<feBlend mode="normal" in="SourceGraphic" in2="effect1_dropShadow_4_5778" result="shape"/>
</filter>
</defs>
</svg>
